<svg xmlns="http://www.w3.org/2000/svg" xmlns:xlink="http://www.w3.org/1999/xlink" width="338.562" height="354.63" viewBox="0 0 338.562 354.63">
  <defs>
    <linearGradient id="linear-gradient" x1="0.5" x2="0.5" y2="1" gradientUnits="objectBoundingBox">
      <stop offset="0" stop-color="#23276a"/>
      <stop offset="1" stop-color="#232878"/>
    </linearGradient>
    <clipPath id="clip-path">
      <path id="Path_1240" data-name="Path 1240" d="M397.651,61.53V353.47L242.72,287.133V61.53" transform="translate(-242.72 -61.53)" fill="#fff" stroke="#263238" stroke-linecap="round" stroke-linejoin="round" stroke-width="1"/>
    </clipPath>
    <clipPath id="clip-path-2">
      <path id="Path_1284" data-name="Path 1284" d="M217,361.868c-1.958,4.161-38.606,4.3-48.467,8.541S118.4,374.1,118.4,374.1s-11.671,4.747-12.781,2.238c0,0-18.516-31.647-19.146-48.161s-5.534-35.747-5.726-38.466,6.994,1.268,10.779,1.967,35.581-12.842,47.6-12.834,42.383-2.168,51.693,2.754c4.939,2.623,10.569,16.54,14.748,29.794,3.715,11.75,6.286,22.975,6.207,25.283C211.621,341.62,218.965,357.715,217,361.868Z" transform="translate(-80.746 -278.37)" fill="#6ba2be" stroke="#263238" stroke-linecap="round" stroke-linejoin="round" stroke-width="1"/>
    </clipPath>
    <clipPath id="clip-path-3">
      <path id="Path_1296" data-name="Path 1296" d="M222.669,249.882c-5.508-2.806-13.9-3.444-26.48-.463-25.624,6.12-36.036,31.42-40.442,65.759-.533,4.118.787,15.867.787,15.867a11.26,11.26,0,0,0-1.853,6,89.084,89.084,0,0,0,4.651,26.148s19.233,21.113,63.4,5.429c17.992-6.382,7.2-64.02,6.924-76.058-.35-14.678,5.586-18.778,4.371-28.762" transform="translate(-154.68 -247.46)" fill="#fff" stroke="#263238" stroke-linecap="round" stroke-linejoin="round" stroke-width="1"/>
    </clipPath>
    <clipPath id="clip-path-4">
      <path id="Path_1343" data-name="Path 1343" d="M290.684,394.857s-11.417,6.915-16.261,6.915H264.37L263.845,394s-7.58-20.492-8.366-25.213-4.135-13.524-4.135-13.524a49.027,49.027,0,0,1-1.687,13.8c-1.136,4.039-3.042,8.113-6.2,10.954-8.62,7.746-36.141,12.772-43.58,4.817-1.7-1.818-2.168-5.814-1.39-11.26,2.623-18.411,19.556-53.45,51.781-77.387,9.45-6.994,20.317-4.371,23.429,1.136s3.5,44.026,5.193,46.4,2.422,21.252,2.422,21.252l3.8,21.585,2.422.288Z" transform="translate(-198.124 -291.959)" fill="#fff" stroke="#263238" stroke-linecap="round" stroke-linejoin="round" stroke-width="1"/>
    </clipPath>
    <clipPath id="clip-path-5">
      <path id="Path_1348" data-name="Path 1348" d="M225.312,297.467c8.218-5.717,17.589-6.6,23.464,2.413s.551,51.9.874,53.625-1.888,9.188-1.888,9.188l-5.6,34.969h2.081l1.381,7.247s-24.478,6.242-27.022,5.551-.1-8.646-.1-8.646l2.3-32.871s-8.314,22.275-28.421,22.608c-20.894.35-38.728-23.167-25.93-40.118s21.1-16.252,21.1-16.252S216.36,303.682,225.312,297.467Z" transform="translate(-162.145 -293.134)" fill="#fff" stroke="#263238" stroke-linecap="round" stroke-linejoin="round" stroke-width="1"/>
    </clipPath>
  </defs>
  <g id="Starry_window-bro" data-name="Starry window-bro" transform="translate(-47.14 -57.09)">
    <path id="Rectangle_226" data-name="Rectangle 226" d="M58,0H313.062a25,25,0,0,1,25,25V309a0,0,0,0,1,0,0H25A25,25,0,0,1,0,284V58A58,58,0,0,1,58,0Z" transform="translate(47.14 57.59)" fill="url(#linear-gradient)"/>
    <path id="Path_2755" data-name="Path 2755" d="M90,297.714a8.379,8.379,0,0,1-8.172-8.172V133.949L37.049,168.271a7.411,7.411,0,0,1-4.9,1.961q-3.6,0-6.538-3.923L6.322,141.14a9.353,9.353,0,0,1-1.634-4.9,7.45,7.45,0,0,1,3.923-6.864L83.792,71.188A14.329,14.329,0,0,1,91.637,68.9H132.5a7.838,7.838,0,0,1,8.172,8.172v212.47a8.12,8.12,0,0,1-2.288,5.72,7.688,7.688,0,0,1-5.884,2.452Z" transform="translate(48.14 22.59)" fill="#fff" opacity="0.05"/>
    <g id="freepik--Window--inject-2" transform="translate(212.434 57.59)">
      <path id="Path_1236" data-name="Path 1236" d="M405.488,61.53V368.472L232.72,294.229V61.53" transform="translate(-232.72 -61.53)" fill="#fff" stroke="#263238" stroke-linecap="round" stroke-linejoin="round" stroke-width="1"/>
      <path id="Path_1237" data-name="Path 1237" d="M252.72,63.53V281.615l137.446,58.853V63.53" transform="translate(-235.235 -60.033)" fill="#fff" stroke="#263238" stroke-linecap="round" stroke-linejoin="round" stroke-width="1"/>
      <path id="Path_1238" data-name="Path 1238" d="M397.651,61.53V353.47L242.72,287.133V61.53" transform="translate(-233.978 -59.782)" fill="#fff"/>
      <g id="Group_74" data-name="Group 74" transform="translate(8.742 1.748)" clip-path="url(#clip-path)">
        <path id="Path_1239" data-name="Path 1239" d="M397.651,61.53V353.47L242.72,287.133V61.53" transform="translate(-242.72 -61.53)" fill="#fff" opacity="0.4"/>
      </g>
      <path id="Path_1241" data-name="Path 1241" d="M397.651,61.53V355.218L242.72,288.485V61.53" transform="translate(-233.978 -61.53)" fill="rgba(0,0,0,0)" stroke="#263238" stroke-linecap="round" stroke-linejoin="round" stroke-width="1"/>
      <path id="Path_1242" data-name="Path 1242" d="M398.98,59.53V346.356L256.542,285.369l-3.252-1.39V59.53Z" transform="translate(-235.307 -59.53)" fill="#030528"/>
      <path id="Path_1243" data-name="Path 1243" d="M398.98,266.461v98.22L253.29,302.3V267.44h7.51V254.353h4.581v-6.006l2.133-2.081v10.517h2.92l5.8,5.665v6.985l2.072-2.02V254.353h5.123V242.568h4.607v11.785h2.273v4.135h11.837v9.389h5.9V248.933h5.21v-9.45h3.672v14.871h8.611v7.16l2.465,2.4V248.635h6.338v-9.153h7.693V205.23h2.2v25.842l7.02,6.836v9.136h7.177V240.7h10.692v35.127h6.373V258.488h6.321v-9.555l2.675,2.605v9.319h3.4v15.115h3.882V235.618h2.194v30.843Z" transform="translate(-235.307 -77.855)" fill="#1e2040" opacity="0.5"/>
      <path id="Path_1244" data-name="Path 1244" d="M398.98,296.38v75.367L256.542,310.761l-3.252-1.39v-12.86l.262-.131V282.1h2.623v26.419h3.156V302.99h2.308V270.975h10.316v19.312h11.26V279.892h7.676v23.1h12.283V289.221h8.41V302.99h15.465V289.221h10.08v12.615h5.053V290.742h2.894v4.415h3.471V271.412h4.869V261.42h3.427v23.307h5.787V269.69h3.383v32.145h10.1V323.6h6.906v-8.5h5.175v8.5h2.658V296.38Z" transform="translate(-235.307 -84.922)" fill="#16183e"/>
      <path id="Path_1245" data-name="Path 1245" d="M252.1,164.33l146.18,18.822v14.407L247.69,173.072v-8.157Z" transform="translate(-234.603 -72.711)" fill="#fff" stroke="#263238" stroke-linecap="round" stroke-linejoin="round" stroke-width="1"/>
      <line id="Line_140" data-name="Line 140" x1="3.453" y1="0.481" transform="translate(13.087 92.205)" fill="none" stroke="#263238" stroke-linecap="round" stroke-linejoin="round" stroke-width="1"/>
      <line id="Line_141" data-name="Line 141" x1="1.827" y1="0.254" transform="translate(20.466 93.236)" fill="none" stroke="#263238" stroke-linecap="round" stroke-linejoin="round" stroke-width="1"/>
      <line id="Line_142" data-name="Line 142" x1="135.401" y1="18.91" transform="translate(25.02 93.875)" fill="none" stroke="#263238" stroke-linecap="round" stroke-linejoin="round" stroke-width="1"/>
      <path id="Path_1246" data-name="Path 1246" d="M398.983,59.53V95.7c-5.009,4.3-12.021,8.34-21.856,11.365-37.356,11.618-37.295,12.816-50.469,42.19s-27.905,31.262-45.643,36.324c-11.085,3.165-21.462,16.995-27.7,26.944V138.438c4.511-.236,10.657-1.032,15.22-3.444,8.1-4.3,3-20.107,18-30.423s21.462,9.879,31.6-14.739c4.424-10.736,8.279-21.5,11.933-30.3Z" transform="translate(-235.31 -59.53)" fill="#fff" opacity="0.1"/>
      <circle id="Ellipse_10" data-name="Ellipse 10" cx="1.451" cy="1.451" r="1.451" transform="translate(110.747 30.301)" fill="#fff"/>
      <path id="Path_1247" data-name="Path 1247" d="M362.266,95.6l12.327-2.028-12.327-2.028,3.672-5.123L360.814,90.1,358.786,77.77,356.758,90.1l-5.123-3.672,3.672,5.123L342.98,93.576,355.307,95.6l-3.672,5.123,5.123-3.672,2.028,12.327,2.028-12.327,5.123,3.672Z" transform="translate(-246.588 -61.824)" fill="#fff" opacity="0.4"/>
      <path id="Path_1248" data-name="Path 1248" d="M361.536,95.741l7.457-1.224-7.457-1.233,1.469-2.046-2.046,1.469-1.233-7.457L358.5,92.707l-2.054-1.469,1.469,2.046-7.457,1.233,7.457,1.224L356.448,97.8l2.054-1.469,1.224,7.457,1.233-7.457,2.046,1.469Z" transform="translate(-247.528 -62.765)" fill="#fff" opacity="0.5"/>
      <circle id="Ellipse_11" data-name="Ellipse 11" cx="1.04" cy="1.04" r="1.04" transform="translate(75.079 80.726)" fill="#fff"/>
      <path id="Path_1249" data-name="Path 1249" d="M320.66,152.881l8.882-1.46-8.882-1.469,2.649-3.689-3.7,2.649-1.46-8.882-1.46,8.882-3.7-2.649,2.649,3.689-8.882,1.469,8.882,1.46-2.649,3.689,3.7-2.649,1.46,8.891,1.46-8.891,3.7,2.649Z" transform="translate(-242.032 -69.655)" fill="#ffcf5a"/>
      <path id="Path_1250" data-name="Path 1250" d="M320.132,152.981l5.377-.883-5.377-.892,1.058-1.477-1.477,1.058-.883-5.376-.883,5.376-1.477-1.058,1.058,1.477-5.376.892,5.376.883-1.058,1.477,1.477-1.058.883,5.377.883-5.377,1.477,1.058Z" transform="translate(-242.71 -70.331)" fill="#ffc024" opacity="0.5"/>
      <path id="Path_1251" data-name="Path 1251" d="M272.99,87.594a1.145,1.145,0,1,1-.335-.819A1.145,1.145,0,0,1,272.99,87.594Z" transform="translate(-237.497 -62.915)" fill="#fff"/>
      <path id="Path_1252" data-name="Path 1252" d="M272.969,87.565l9.774-1.609-9.774-1.609,2.911-4.065-4.065,2.911-1.609-9.774L268.6,83.194l-4.065-2.911,2.911,4.065-9.774,1.609,9.774,1.609-2.911,4.065,4.065-2.92,1.609,9.783,1.609-9.783,4.065,2.92Z" transform="translate(-235.858 -61.277)" fill="#fff" opacity="0.4"/>
      <path id="Path_1253" data-name="Path 1253" d="M272.386,87.673l5.919-.97-5.919-.979,1.163-1.626-1.617,1.171-.979-5.919-.979,5.919L268.356,84.1l1.163,1.626L263.6,86.7l5.919.97L268.356,89.3l1.617-1.163.979,5.919.979-5.919,1.617,1.163Z" transform="translate(-236.604 -62.023)" fill="#fff" opacity="0.5"/>
      <circle id="Ellipse_12" data-name="Ellipse 12" cx="1.145" cy="1.145" r="1.145" transform="translate(137.979 69.038)" fill="#fff"/>
      <path id="Path_1254" data-name="Path 1254" d="M392.819,139.615l9.774-1.609-9.774-1.609,2.911-4.065-4.065,2.911-1.609-9.774-1.609,9.774-4.065-2.911,2.911,4.065-9.774,1.609,9.774,1.609-2.911,4.065,4.065-2.911,1.609,9.774,1.609-9.774,4.065,2.911Z" transform="translate(-250.932 -67.823)" fill="#fff" opacity="0.4"/>
      <path id="Path_1255" data-name="Path 1255" d="M392.236,139.731l5.919-.979-5.919-.979,1.163-1.617-1.617,1.163L390.8,131.4l-.97,5.919-1.626-1.163,1.163,1.617-5.919.979,5.919.979-1.163,1.617,1.626-1.163.97,5.919.979-5.919,1.617,1.163Z" transform="translate(-251.678 -68.569)" fill="#fff" opacity="0.5"/>
      <path id="Path_1256" data-name="Path 1256" d="M281.271,199.231a.831.831,0,1,1-.831-.831A.874.874,0,0,1,281.271,199.231Z" transform="translate(-238.617 -76.996)" fill="#fff"/>
      <path id="Path_1257" data-name="Path 1257" d="M281.257,199.216l7.073-1.171-7.073-1.163,2.107-2.937-2.946,2.107-1.163-7.081-1.163,7.081-2.946-2.107,2.107,2.937-7.073,1.163,7.073,1.171-2.107,2.937,2.946-2.107,1.163,7.081,1.163-7.081,2.946,2.107Z" transform="translate(-237.431 -75.81)" fill="#fff" opacity="0.4"/>
      <path id="Path_1258" data-name="Path 1258" d="M280.834,199.292l4.284-.708-4.284-.7.839-1.18-1.171.848-.708-4.292-.708,4.292-1.171-.848.839,1.18-4.284.7,4.284.708-.839,1.18,1.171-.848.708,4.284.708-4.284,1.171.848Z" transform="translate(-237.971 -76.349)" fill="#fff" opacity="0.5"/>
      <path id="Path_1259" data-name="Path 1259" d="M287.774,131.132a.542.542,0,1,1-.542-.542A.542.542,0,0,1,287.774,131.132Z" transform="translate(-239.508 -68.467)" fill="#fff"/>
      <path id="Path_1260" data-name="Path 1260" d="M287.755,131.122l4.607-.761-4.607-.761,1.372-1.906-1.906,1.364-.761-4.6-.761,4.6-1.915-1.364,1.373,1.906-4.6.761,4.6.761-1.373,1.906,1.915-1.373.761,4.607.761-4.607,1.906,1.373Z" transform="translate(-238.737 -67.696)" fill="#fff" opacity="0.4"/>
      <path id="Path_1261" data-name="Path 1261" d="M287.485,131.167l2.78-.455-2.78-.463.551-.761-.769.551-.455-2.789-.463,2.789-.761-.551.551.761-2.789.463,2.789.455-.551.769.761-.551.463,2.789.455-2.789.769.551Z" transform="translate(-239.088 -68.047)" fill="#fff" opacity="0.5"/>
      <path id="Path_1262" data-name="Path 1262" d="M393.634,221.022a.542.542,0,1,1-.542-.542A.542.542,0,0,1,393.634,221.022Z" transform="translate(-252.822 -79.773)" fill="#fff"/>
      <path id="Path_1263" data-name="Path 1263" d="M393.625,221.012l4.6-.761-4.6-.761L395,217.585l-1.915,1.364-.761-4.6-.752,4.6-1.915-1.364,1.373,1.906-4.6.761,4.6.761-1.373,1.906,1.915-1.364.752,4.6.761-4.6L395,222.917Z" transform="translate(-252.052 -79.002)" fill="#fff" opacity="0.4"/>
      <path id="Path_1264" data-name="Path 1264" d="M393.355,221.057l2.78-.455-2.78-.463.542-.761-.761.551-.463-2.789-.455,2.789-.769-.551.551.761-2.78.463,2.78.455-.551.769.769-.551.455,2.789.463-2.789.761.551Z" transform="translate(-252.403 -79.353)" fill="#fff" opacity="0.5"/>
      <path id="Path_1265" data-name="Path 1265" d="M369.564,160.262a.542.542,0,1,1-.542-.542A.542.542,0,0,1,369.564,160.262Z" transform="translate(-249.795 -72.131)" fill="#fff"/>
      <path id="Path_1266" data-name="Path 1266" d="M369.555,160.252l4.6-.761-4.6-.752,1.373-1.915-1.915,1.373-.761-4.607L367.5,158.2l-1.915-1.373,1.373,1.915-4.6.752,4.6.761-1.373,1.915,1.915-1.373.752,4.6.761-4.6,1.915,1.373Z" transform="translate(-249.025 -71.36)" fill="#fff" opacity="0.4"/>
      <path id="Path_1267" data-name="Path 1267" d="M369.285,160.305l2.78-.463-2.78-.455.542-.769-.761.551-.463-2.789-.455,2.789-.769-.551.551.769-2.78.455,2.78.463-.551.761.769-.542.455,2.78.463-2.78.761.542Z" transform="translate(-249.376 -71.711)" fill="#fff" opacity="0.5"/>
      <path id="Path_1268" data-name="Path 1268" d="M302.277,242.142a.323.323,0,1,1-.092-.234.323.323,0,0,1,.092.234Z" transform="translate(-241.387 -82.456)" fill="#fff"/>
      <path id="Path_1269" data-name="Path 1269" d="M302.275,242.131l2.771-.455-2.771-.463.822-1.154-1.154.831-.455-2.78-.455,2.78-1.154-.831.822,1.154-2.771.463,2.771.455-.822,1.154,1.154-.831.455,2.78.455-2.78,1.154.831Z" transform="translate(-240.922 -81.99)" fill="#fff" opacity="0.4"/>
      <path id="Path_1270" data-name="Path 1270" d="M302.11,242.16l1.679-.271-1.679-.28.332-.463-.463.332-.28-1.679-.28,1.679-.463-.332.332.463-1.679.28,1.679.271-.332.463.463-.332.28,1.679.28-1.679.463.332Z" transform="translate(-241.133 -82.203)" fill="#fff" opacity="0.5"/>
      <circle id="Ellipse_13" data-name="Ellipse 13" cx="0.542" cy="0.542" r="0.542" transform="translate(86.828 133.906)" fill="#fff"/>
      <path id="Path_1271" data-name="Path 1271" d="M333.1,213.232l4.6-.761-4.6-.752,1.372-1.915-1.915,1.373-.752-4.607-.761,4.607-1.915-1.373,1.373,1.915-4.6.752,4.6.761-1.373,1.915,1.915-1.373.761,4.6.752-4.6,1.915,1.373Z" transform="translate(-244.441 -78.023)" fill="#fff" opacity="0.4"/>
      <path id="Path_1272" data-name="Path 1272" d="M332.835,213.287l2.789-.463-2.789-.455.551-.769-.769.551-.455-2.78-.463,2.78-.761-.551.551.769-2.789.455,2.789.463-.551.761.761-.551.463,2.789.455-2.789.769.551Z" transform="translate(-244.792 -78.376)" fill="#fff" opacity="0.5"/>
      <path id="Path_1273" data-name="Path 1273" d="M309.214,83.092a.542.542,0,1,1-.542-.542A.542.542,0,0,1,309.214,83.092Z" transform="translate(-242.204 -62.425)" fill="#fff"/>
      <path id="Path_1274" data-name="Path 1274" d="M309.195,83.082l4.607-.761-4.607-.761,1.372-1.906-1.915,1.373L307.9,76.42l-.761,4.607-1.915-1.373L306.6,81.56l-4.6.761,4.6.761-1.373,1.906,1.915-1.364.761,4.6.752-4.6,1.915,1.364Z" transform="translate(-241.433 -61.654)" fill="#fff" opacity="0.4"/>
      <path id="Path_1275" data-name="Path 1275" d="M308.925,83.127l2.78-.455-2.78-.455.551-.769-.769.551-.455-2.789L307.789,82l-.761-.551.551.769-2.789.455,2.789.455-.551.769.761-.551.463,2.789.455-2.789.769.551Z" transform="translate(-241.784 -62.005)" fill="#fff" opacity="0.5"/>
      <path id="Path_1276" data-name="Path 1276" d="M337.074,112.262a.542.542,0,1,1-.542-.542A.542.542,0,0,1,337.074,112.262Z" transform="translate(-245.708 -66.094)" fill="#fff"/>
      <path id="Path_1277" data-name="Path 1277" d="M337.065,112.252l4.6-.761-4.6-.752,1.373-1.915-1.915,1.373-.752-4.607-.761,4.607-1.915-1.373,1.373,1.915-4.6.752,4.6.761-1.373,1.915,1.915-1.373.761,4.6.752-4.6,1.915,1.373Z" transform="translate(-244.939 -65.323)" fill="#fff" opacity="0.4"/>
      <path id="Path_1278" data-name="Path 1278" d="M336.8,112.307l2.78-.463-2.78-.455.542-.769-.761.551-.455-2.78-.463,2.78-.761-.551.542.769-2.78.455,2.78.463-.542.761.761-.551.463,2.789.455-2.789.761.551Z" transform="translate(-245.29 -65.675)" fill="#fff" opacity="0.5"/>
      <path id="Path_1279" data-name="Path 1279" d="M364.762,214.311a.271.271,0,1,1-.271-.271.271.271,0,0,1,.271.271Z" transform="translate(-249.259 -78.963)" fill="#fff"/>
      <path id="Path_1280" data-name="Path 1280" d="M364.752,214.3l2.3-.376-2.3-.376.691-.962-.962.691-.376-2.3-.376,2.3-.962-.691.691.962-2.308.376,2.308.376-.691.962.962-.691.376,2.308.376-2.308.962.691Z" transform="translate(-248.873 -78.578)" fill="#fff" opacity="0.4"/>
      <path id="Path_1281" data-name="Path 1281" d="M364.613,214.328l1.4-.227-1.4-.227.28-.385-.385.28-.227-1.4-.227,1.4-.385-.28.271.385-1.39.227,1.39.227-.271.385.385-.271.227,1.39.227-1.39.385.271Z" transform="translate(-249.049 -78.753)" fill="#fff" opacity="0.5"/>
    </g>
    <g id="freepik--Pillow--inject-2" transform="translate(79.574 250.471)">
      <path id="Path_1282" data-name="Path 1282" d="M217,361.868c-1.958,4.161-38.606,4.3-48.467,8.541S118.4,374.1,118.4,374.1s-11.671,4.747-12.781,2.238c0,0-18.516-31.647-19.146-48.161s-5.534-35.747-5.726-38.466,6.994,1.268,10.779,1.967,35.581-12.842,47.6-12.834,42.383-2.168,51.693,2.754c4.939,2.623,10.569,16.54,14.748,29.794,3.715,11.75,6.286,22.975,6.207,25.283C211.621,341.62,218.965,357.715,217,361.868Z" transform="translate(-80.746 -278.239)" fill="#6ba2be"/>
      <g id="Group_75" data-name="Group 75" transform="translate(0 0.131)" clip-path="url(#clip-path-2)">
        <path id="Path_1283" data-name="Path 1283" d="M217,363.5c-1.958,4.161-38.606,4.3-48.467,8.541s-50.128,3.689-50.128,3.689-11.671,4.747-12.781,2.238c0,0-18.516-31.647-19.146-48.161s-5.534-35.747-5.726-38.466c4.144-.21,8.559,17.126,10.779,20.107s3.785,10.736,6.994,13.76,5.8,24.732,5.8,24.732,2.43-10.106,4.581-8.821,16.7,19.626,17.38,20.483c-.551-.918-12.091-20.536,3.444-46.693,15.911-26.8,47.374-9.153,50.312-6.906s-2.387,33.142-.411,33.221,17.152-7.623,21.576-17.843c1.626-3.75,3.13-7.335,4.371-10.36,3.715,11.75,6.286,22.975,6.207,25.283C211.622,343.251,218.966,359.346,217,363.5Z" transform="translate(-80.746 -280.001)" fill="#6ba2be" opacity="0.2"/>
      </g>
      <path id="Path_1285" data-name="Path 1285" d="M217,361.868c-1.958,4.161-38.606,4.3-48.467,8.541S118.4,374.1,118.4,374.1s-11.671,4.747-12.781,2.238c0,0-18.516-31.647-19.146-48.161s-5.534-35.747-5.726-38.466,6.994,1.268,10.779,1.967,35.581-12.842,47.6-12.834,42.383-2.168,51.693,2.754c4.939,2.623,10.569,16.54,14.748,29.794,3.715,11.75,6.286,22.975,6.207,25.283C211.621,341.62,218.965,357.715,217,361.868Z" transform="translate(-80.746 -278.239)" fill="#6ba2be" stroke="#263238" stroke-linecap="round" stroke-linejoin="round" stroke-width="1"/>
      <path id="Path_1286" data-name="Path 1286" d="M84.54,296.42s5.184,20.859,8.646,25.09,6.574,15.526,7.606,23.193,5.884,25.353,7.265,27.1a7.921,7.921,0,0,1,1.381,4.371s-13.384-18.263-15.684-32.6-4.371-23.6-4.371-23.6" transform="translate(-81.223 -280.509)" fill="#6ba2be" stroke="#263238" stroke-linecap="round" stroke-linejoin="round" stroke-width="1"/>
      <path id="Path_1287" data-name="Path 1287" d="M94.43,325.12s3.8,25.781,4.843,25.9,2.107,9.179,6.758,14.862" transform="translate(-82.467 -284.119)" fill="#6ba2be" stroke="#263238" stroke-linecap="round" stroke-linejoin="round" stroke-width="1"/>
      <path id="Path_1288" data-name="Path 1288" d="M151.927,300.59s-21.856,19.329-18.77,44.638" transform="translate(-87.3 -281.034)" fill="#6ba2be" stroke="#263238" stroke-linecap="round" stroke-linejoin="round" stroke-width="1"/>
      <path id="Path_1289" data-name="Path 1289" d="M122.451,385.372c-.446-2.2-10.491-13.839-9.442-17.362" transform="translate(-84.794 -289.513)" fill="#6ba2be" stroke="#263238" stroke-linecap="round" stroke-linejoin="round" stroke-width="1"/>
      <path id="Path_1290" data-name="Path 1290" d="M93.08,293.62s1.521,7.816,4.983,13.052" transform="translate(-82.297 -280.157)" fill="#6ba2be" stroke="#263238" stroke-linecap="round" stroke-linejoin="round" stroke-width="1"/>
      <path id="Path_1291" data-name="Path 1291" d="M215.086,338.28S200.443,359.262,191.22,360.7" transform="translate(-94.64 -285.774)" fill="#6ba2be" stroke="#263238" stroke-linecap="round" stroke-linejoin="round" stroke-width="1"/>
    </g>
    <g id="freepik--Character--inject-2" transform="translate(144.21 167.461)">
      <path id="Path_1293" data-name="Path 1293" d="M229.01,248.907s8.008-2.081,15.334,13.594c0,0,4.3,1.154,4.3,3.226s3.96,5.945,5.1,6.81,8.069,5.953,8.069,5.953l7.868,18.735s-5.307,14.075-6,13.883-15.011-9.783-15.011-9.783l-21.4-28.745" transform="translate(-163.81 -191.511)" fill="#e1c2ca" stroke="#263238" stroke-linecap="round" stroke-linejoin="round" stroke-width="1"/>
      <path id="Path_1294" data-name="Path 1294" d="M222.669,249.882c-5.508-2.806-13.9-3.444-26.48-.463-25.624,6.12-36.036,31.42-40.442,65.759-.533,4.118.787,15.867.787,15.867a11.26,11.26,0,0,0-1.853,6,89.084,89.084,0,0,0,4.651,26.148s19.233,21.113,63.4,5.429c17.992-6.382,7.2-64.02,6.924-76.058-.35-14.678,5.586-18.778,4.371-28.762" transform="translate(-154.68 -191.341)" fill="#263238"/>
      <g id="Group_76" data-name="Group 76" transform="translate(0 56.119)" clip-path="url(#clip-path-3)">
        <path id="Path_1295" data-name="Path 1295" d="M229.623,292.6c.236,9.984,7.728,51.527-.1,68.9-4.572,3.156-9.083,6.268-13.437,9.258-39.463,11.435-56.825-7.562-56.825-7.562a89.085,89.085,0,0,1-4.625-26.148,11.26,11.26,0,0,1,1.853-6s-1.32-11.75-.787-15.867c4.371-34.34,14.818-59.666,40.442-65.759,12.58-2.981,20.981-2.343,26.48.463l7.344,9.031c-3.733,7.256-10.771.822-10.771.822l-8.3,6.05-7.623-3.278-4.616,5.709-6.224-5.709H177.685c-4.441,0-10.43,15.413-10.43,15.413-6.574,7.868-7.265,30.2-6.041,37.434s3.27,7.982,3.27,7.982l-6.574,6.12,1.39,16.61,13.017-16.61c-.367.122-9.162,3.165-6.793,0s10.543-7.816,10.543-7.816-6.391-12.458-3.742-12.108,11.522-2.081,11.522-2.081-15.561-8.3-15.561-10.368,7.955,0,7.955,0c-4.843-3.794-3.917-14.145-3.917-14.145s13.857-13.236,24.137-11.461a154.736,154.736,0,0,0,16.61,2l17.607-.367,2.955-1.888C232.376,276.939,229.369,282.027,229.623,292.6Z" transform="translate(-154.675 -247.46)" fill="rgba(0,0,0,0.7)" opacity="0.2"/>
      </g>
      <path id="Path_1297" data-name="Path 1297" d="M222.669,249.882c-5.508-2.806-13.9-3.444-26.48-.463-25.624,6.12-36.036,31.42-40.442,65.759-.533,4.118.787,15.867.787,15.867a11.26,11.26,0,0,0-1.853,6,89.084,89.084,0,0,0,4.651,26.148s19.233,21.113,63.4,5.429c17.992-6.382,7.2-64.02,6.924-76.058-.35-14.678,5.586-18.778,4.371-28.762" transform="translate(-154.68 -191.341)" fill="#e6e9e4" stroke="#263238" stroke-linecap="round" stroke-linejoin="round" stroke-width="1"/>
      <path id="Path_1298" data-name="Path 1298" d="M218.754,265.35l3.628-9.713,5.307.726s-9.529-10.159-13.857-11.837c-13.752-5.342-19.906-.988-19.5,5.726.3,4.974,9.4,13.83,9.4,13.83L207,259.764l7.955,7.781" transform="translate(-159.665 -190.671)" fill="#e1c2ca" stroke="#263238" stroke-linecap="round" stroke-linejoin="round" stroke-width="1"/>
      <path id="Path_1299" data-name="Path 1299" d="M238.714,203.9c2.684,21.48,0,47.978-7.352,47.986-5.988,0-7.51-6.749-13.481-7.632-6.4-.944-5.42,2.85-13.489-1.88-9.372-5.49-13.944-30.825-7.641-42.767S234.737,172.081,238.714,203.9Z" transform="translate(-159.605 -183.496)" fill="#263238"/>
      <path id="Path_1300" data-name="Path 1300" d="M226.12,276.709s-2.081-.367-2.527-.42-5.324,1.8-6.163,1.6-1.136.953.367,1.547,6.7,0,6.7,0" transform="translate(-162.485 -194.967)" fill="#f2cbba" stroke="#263238" stroke-linecap="round" stroke-linejoin="round" stroke-width="1"/>
      <path id="Path_1301" data-name="Path 1301" d="M222.53,278.866s5.6-3.156,6.854-3.156a2.4,2.4,0,0,1,1.9.927s1.906-.874,3.007,0,5.8,6.382,5.8,6.382-3.3,4.021-6.3,4.205S220.432,281.707,222.53,278.866Z" transform="translate(-163.179 -194.894)" fill="#f2cbba" stroke="#263238" stroke-linecap="round" stroke-linejoin="round" stroke-width="1"/>
      <path id="Path_1302" data-name="Path 1302" d="M232.021,276.77l-3.847,2.623s-.35.8.988,1.18c1.609.446,3.8-.577,4.957-.245" transform="translate(-163.918 -195.027)" fill="#f2cbba" stroke="#263238" stroke-linecap="round" stroke-linejoin="round" stroke-width="1"/>
      <path id="Path_1303" data-name="Path 1303" d="M283.14,290.226s2.273,4.966,2.946,6.644.638,6.12-.087,6.321-.586,3.173-.586,3.173l2.492-.769.49,1.574,2.754-2.107.35,1.145a25.266,25.266,0,0,0,3.558-4.782c.726-1.722.3-8.69-.463-11.129A59.45,59.45,0,0,0,291,282.76" transform="translate(-170.837 -195.781)" fill="#f2cbba" stroke="#263238" stroke-linecap="round" stroke-linejoin="round" stroke-width="1"/>
      <path id="Path_1304" data-name="Path 1304" d="M292.285,306.982s-.455-1.128.516-3.243a6.994,6.994,0,0,0,.428-5.709" transform="translate(-171.973 -197.701)" fill="#fff" stroke="#263238" stroke-linecap="round" stroke-linejoin="round" stroke-width="1"/>
      <path id="Path_1305" data-name="Path 1305" d="M288.587,307.7c-.192-2.089,1.04-3.366,1.626-4.371s-.157-3.829-.157-3.829" transform="translate(-171.519 -197.886)" fill="#fff" stroke="#263238" stroke-linecap="round" stroke-linejoin="round" stroke-width="1"/>
      <path id="Path_1306" data-name="Path 1306" d="M292.652,293.923s.5,3.646-.629,5.07a4.3,4.3,0,0,0-1.023,2.8l4.161-2.8s2.378-6.565-.568-10.98c0,0-3.7-7.649-5.534-9.713s-10.919-1.81-10.779,5.621c0,0,1,8.139,1.171,10.543s2.317,7.466,2.317,7.466,1.748-2.439.726-4.424a4.721,4.721,0,0,1,.087-4.013s2.518.726,3.8-2.535" transform="translate(-170.225 -195.08)" fill="#f2cbba" stroke="#263238" stroke-linecap="round" stroke-linejoin="round" stroke-width="1"/>
      <path id="Path_1307" data-name="Path 1307" d="M281.142,278.668a6.991,6.991,0,0,0-.988-1.128c-2.972-2.693-6.181-1.259-15.841-.831-11.933.542-16.96-.533-20.728.323-5.91,1.338-8.314,4.371-9.818,5.07-5.394,2.492-22.494-1.836-22.494-1.836l-1.014,11.365L221.3,299.5s16.331,4.467,18.971,4.24c3.5-.306,12.965-6.338,18.193-9.617s13.472-8.069,15.675-7.719,3.375-2.483,3.375-2.483" transform="translate(-161.67 -194.923)" fill="#f2cbba" stroke="#263238" stroke-linecap="round" stroke-linejoin="round" stroke-width="1"/>
      <path id="Path_1308" data-name="Path 1308" d="M243.61,284.49c3.261,2.369,6.382,2.133,5.394,6.2s-.822,5.525-.822,5.525" transform="translate(-165.865 -195.998)" fill="rgba(0,0,0,0)" stroke="#263238" stroke-linecap="round" stroke-linejoin="round" stroke-width="1"/>
      <path id="Path_1309" data-name="Path 1309" d="M192.993,304s-10.054,6.26-18.123,2.57" transform="translate(-157.219 -198.452)" fill="rgba(0,0,0,0)" stroke="#263238" stroke-linecap="round" stroke-linejoin="round" stroke-width="1"/>
      <path id="Path_1310" data-name="Path 1310" d="M228.731,240.053s-1.565,1.451-3.27,3.243c-1.906,1.993-4,4.371-4.292,5.639-.551,2.36-3.681,13.988-3.681,13.988l-9.6-11.234-.769-14.722,7.763-12.117,10.8,11.863Z" transform="translate(-161.275 -188.497)" fill="#f2cbba" stroke="#263238" stroke-linecap="round" stroke-linejoin="round" stroke-width="1"/>
      <path id="Path_1311" data-name="Path 1311" d="M230.165,241.76S228.6,243.211,226.9,245a15.647,15.647,0,0,1-8.375-6.233l8.611-.35Z" transform="translate(-162.709 -190.204)" fill="#263238"/>
      <path id="Path_1312" data-name="Path 1312" d="M208.718,228.976s-8.856-5.473-10.491-14.084c-.874-4.869-1.486-17.668,14.11-22.468,14.976-4.59,18.866,9.04,18.866,9.04s1.058,8.935,1.967,10.6c1.224,2.256,9.1,4.765,9.1,4.765-.114,1.8-2.911,4.485-2.911,4.485l.376,2.71-.577.376s1.364,8.646-.691,10.491c-4.371,3.969-21.419,1.748-23.464-.874" transform="translate(-160.111 -184.3)" fill="#f2cbba" stroke="#263238" stroke-linecap="round" stroke-linejoin="round" stroke-width="1"/>
      <path id="Path_1313" data-name="Path 1313" d="M244.278,228.5s-4.5,1.7-6.2.927" transform="translate(-165.169 -188.956)" fill="rgba(0,0,0,0)" stroke="#263238" stroke-linecap="round" stroke-linejoin="round" stroke-width="1"/>
      <path id="Path_1314" data-name="Path 1314" d="M231.869,206.61s-4.2.629-5.429,4.205" transform="translate(-163.705 -186.203)" fill="rgba(0,0,0,0)" stroke="#263238" stroke-linecap="round" stroke-linejoin="round" stroke-width="1"/>
      <path id="Path_1315" data-name="Path 1315" d="M232.478,213.98c.236,1.005,0,1.915-.542,2.046s-1.163-.586-1.4-1.591,0-1.915.542-2.037S232.242,212.975,232.478,213.98Z" transform="translate(-164.209 -186.929)" fill="#263238"/>
      <path id="Path_1316" data-name="Path 1316" d="M212.9,214.742s-6.364,6.994-3.208,15.413c1.661,4.432,3,12.335-1.932,18.822-6.627,8.742-23.884,5.656-23.971.1-.114-6.478,5.245-5.726,5.761-13.988s-7.868-5.674-5.245-24.819,29.724-32.88,34.016-24.478a15.789,15.789,0,0,1,11.61,2.693c7.789,5.5,5.324,21.375,5.324,21.375s-2.142-19.128-18.105-13.988C217.124,195.841,217.963,208.43,212.9,214.742Z" transform="translate(-158.341 -183.267)" fill="#263238"/>
      <g id="Group_77" data-name="Group 77" transform="translate(28.342 4.61)" opacity="0.04">
        <path id="Path_1317" data-name="Path 1317" d="M194.45,245.4a13.5,13.5,0,0,0,1.005,3.077" transform="translate(-188.024 -195.691)" fill="rgba(0,0,0,0)" stroke="#fff" stroke-linecap="round" stroke-linejoin="round" stroke-width="1"/>
        <path id="Path_1318" data-name="Path 1318" d="M209.68,217.08c-3.121,3.934-5.875,8.06-9.617,11.479-3.007,2.78-5.648,6.172-5.884,10.447" transform="translate(-187.99 -192.13)" fill="rgba(0,0,0,0)" stroke="#fff" stroke-linecap="round" stroke-linejoin="round" stroke-width="1"/>
        <path id="Path_1319" data-name="Path 1319" d="M217.856,188.54a67.98,67.98,0,0,1-4.616,22.319" transform="translate(-190.388 -188.54)" fill="rgba(0,0,0,0)" stroke="#fff" stroke-linecap="round" stroke-linejoin="round" stroke-width="1"/>
        <path id="Path_1320" data-name="Path 1320" d="M190.6,220.89c-1.547,1.958-3.5,4.581-3.5,7.221" transform="translate(-187.1 -192.609)" fill="rgba(0,0,0,0)" stroke="#fff" stroke-linecap="round" stroke-linejoin="round" stroke-width="1"/>
        <path id="Path_1321" data-name="Path 1321" d="M208.141,191.48c-1.1,9.2-8.1,16.191-14.731,23.359" transform="translate(-187.894 -188.91)" fill="rgba(0,0,0,0)" stroke="#fff" stroke-linecap="round" stroke-linejoin="round" stroke-width="1"/>
        <path id="Path_1322" data-name="Path 1322" d="M197.8,202.89c-2.36,2.623-5.333,5.044-8.873,5.665" transform="translate(-187.33 -190.345)" fill="rgba(0,0,0,0)" stroke="#fff" stroke-linecap="round" stroke-linejoin="round" stroke-width="1"/>
        <path id="Path_1323" data-name="Path 1323" d="M203.635,196.32a35.469,35.469,0,0,1-2.535,3.7" transform="translate(-188.861 -189.518)" fill="rgba(0,0,0,0)" stroke="#fff" stroke-linecap="round" stroke-linejoin="round" stroke-width="1"/>
      </g>
      <path id="Path_1324" data-name="Path 1324" d="M215.84,220.222s-3.331-5.752-5.613-5.752c-2.736,0-3.759,4.144-3.768,6.8s.874,7.107,2.081,7.955,6.12,1.88,7.684,2.815,2.229-.988,1.311-2.221" transform="translate(-161.192 -187.192)" fill="#f2cbba" stroke="#263238" stroke-linecap="round" stroke-linejoin="round" stroke-width="1"/>
      <path id="Path_1325" data-name="Path 1325" d="M180.792,301.5s1.154,5.368,10.237,3.182a32.739,32.739,0,0,1-11.68,2.43s7.265,3.016,11.68,2.317c0,0,6.19,6.845,10.744,8,0,0-8.882,4.861-16.514,3.007a11.208,11.208,0,0,0,6.259,4.721c4.091,1.04-5.3,1.748-9.171,3.978s9.171,2.081,9.171,2.081a14.407,14.407,0,0,0-6.994,6.216c-2.369,4.5.166,9.022,17.86,7.195s25.353-19.084,25.632-29.479S213.873,294.1,180.792,301.5Z" transform="translate(-157.783 -197.827)" fill="#e5e8e1"/>
      <path id="Path_1326" data-name="Path 1326" d="M219,268.42c1.154,3.086,3.733,4.992,2.186,7.667" transform="translate(-162.77 -193.977)" fill="rgba(0,0,0,0)" stroke="#263238" stroke-linecap="round" stroke-linejoin="round" stroke-width="1"/>
      <path id="Path_1327" data-name="Path 1327" d="M182.78,321.574c3.917,2.771,14.372,5.464,24.793-1.5" transform="translate(-158.214 -200.473)" fill="rgba(0,0,0,0)" stroke="#263238" stroke-linecap="round" stroke-linejoin="round" stroke-width="1"/>
      <path id="Path_1328" data-name="Path 1328" d="M182.839,266.84c9.686.8,13.376,4.415,15.92,7.046s23.727,4.616,23.727,4.616c6.583-2.037,6.583,2.457,6.583,2.457A13.822,13.822,0,0,0,219.8,292.77c-.918,8.515,5.7,9.232,5.7,9.232s-3.147,4.887-5.7,2.9l-5.167.07s-11.846-.131-21.856-5.656c0,0-18.062,4.371-19.889-15.526" transform="translate(-156.97 -193.778)" fill="#e1c2ca" stroke="#263238" stroke-linecap="round" stroke-linejoin="round" stroke-width="1"/>
      <path id="Path_1329" data-name="Path 1329" d="M225.749,307.439s-3.715.551-5.289-6.321S224.552,287,224.552,287" transform="translate(-162.919 -196.314)" fill="rgba(0,0,0,0)" stroke="#263238" stroke-linecap="round" stroke-linejoin="round" stroke-width="1"/>
      <path id="Path_1330" data-name="Path 1330" d="M200.924,275.66c-2.177-1.748-12.44,3.742-19.924,2.212" transform="translate(-157.99 -194.844)" fill="rgba(0,0,0,0)" stroke="#263238" stroke-linecap="round" stroke-linejoin="round" stroke-width="1"/>
      <path id="Path_1331" data-name="Path 1331" d="M195.569,302.283s-2.579-7.265,10.115-11.933" transform="translate(-159.796 -196.735)" fill="rgba(0,0,0,0)" stroke="#263238" stroke-linecap="round" stroke-linejoin="round" stroke-width="1"/>
      <path id="Path_1332" data-name="Path 1332" d="M265.255,452.083a1.748,1.748,0,0,1-1.093,1.748,4.284,4.284,0,0,1-2.824-.1c-1.609,1.609-3.7,0-3.7,0-1.093,1.434-3.785,1.276-5.752.1,0,0-1.163,1.451-4.651-1.95,0,0-6.88-6.023-9.188-9.241s-6.12-3.672-11.024-8.629c-2.71-2.745-1.748-5.752-.149-9.616.533-1.3,1.128-2.7,1.661-4.223a28.5,28.5,0,0,0,1.67-7.23l17.607-7.413a46.481,46.481,0,0,0,.831,10.027,22.73,22.73,0,0,0,2.8,7.58c.262.411.5.813.726,1.2,3.383,5.84,3.252,9.564,7.352,13.769,4.371,4.494,6.933,8.13,9.3,9.975S271.165,453.35,265.255,452.083Z" transform="translate(-163.565 -211.222)" fill="#f2cbba" stroke="#263238" stroke-linecap="round" stroke-linejoin="round" stroke-width="1"/>
      <path id="Path_1333" data-name="Path 1333" d="M270.32,457.769c-.463-1.748-1.958-3.5-2.885-4.843a11.755,11.755,0,0,0-1.845-2.186" transform="translate(-168.629 -216.908)" fill="#fff" stroke="#263238" stroke-linecap="round" stroke-linejoin="round" stroke-width="1"/>
      <path id="Path_1334" data-name="Path 1334" d="M265.988,459.551c.691-2.081.8-3-.813-4.266s-2.317-2.885-2.885-3.235" transform="translate(-168.214 -217.072)" fill="#fff" stroke="#263238" stroke-linecap="round" stroke-linejoin="round" stroke-width="1"/>
      <path id="Path_1335" data-name="Path 1335" d="M261.793,459.684c.463-1.04,0-1.39-.918-3a30.909,30.909,0,0,0-2.535-3.576" transform="translate(-167.717 -217.206)" fill="#fff" stroke="#263238" stroke-linecap="round" stroke-linejoin="round" stroke-width="1"/>
      <path id="Path_1336" data-name="Path 1336" d="M255.458,459.789c.874-1.836,1.154-.918,0-2.876s-1.425-3.8-1.748-3.8" transform="translate(-167.135 -217.206)" fill="#fff" stroke="#263238" stroke-linecap="round" stroke-linejoin="round" stroke-width="1"/>
      <path id="Path_1337" data-name="Path 1337" d="M252.368,425.812a70.552,70.552,0,0,1-18.359.988,51.226,51.226,0,0,1-6.889-1.014c.533-1.3,1.128-2.7,1.661-4.223L248.871,417a22.73,22.73,0,0,0,2.8,7.58C251.913,425.025,252.149,425.428,252.368,425.812Z" transform="translate(-163.791 -212.664)" fill="#263238"/>
      <path id="Path_1338" data-name="Path 1338" d="M310.619,434.307a12.89,12.89,0,0,0,3.724,2.745c3.89,2,2.789,4.9-.21,5.368a7.475,7.475,0,0,1-5.3-1.346s-3.689,0-7.868-4.021-10.832-8.7-14.486-8.235-9.494-.463-8.891-8.3-4.371-20.981-4.371-20.981l17.983-3a69.139,69.139,0,0,0,5.429,16.252c1.853,3.7,12.545,12.091,15.264,14.748s4.66,5.105,5.079,6.767,2.832,4.948-.07,6" transform="translate(-169.589 -210.091)" fill="#f2cbba" stroke="#263238" stroke-linecap="round" stroke-linejoin="round" stroke-width="1"/>
      <path id="Path_1339" data-name="Path 1339" d="M323.584,441.428c-1.373-1.88-2.754-2.054-3.794-3.348" transform="translate(-175.446 -215.315)" fill="rgba(0,0,0,0)" stroke="#263238" stroke-linecap="round" stroke-linejoin="round" stroke-width="1"/>
      <path id="Path_1340" data-name="Path 1340" d="M299.63,416.612c-6.023,2.57-12.056-.568-12.056-.568l-5.682,1.04,1.609,3.8-3.287-3.8-2.623.551c-.5-7.781-4.371-17.974-4.371-17.974l5.621-.935,12.528-1.215a68.906,68.906,0,0,0,5.263,15.4,16.989,16.989,0,0,0,3,3.7Z" transform="translate(-169.589 -210.213)" fill="#263238"/>
      <path id="Path_1341" data-name="Path 1341" d="M290.684,394.857s-11.417,6.915-16.261,6.915H264.37L263.845,394s-7.58-20.492-8.366-25.213-4.135-13.524-4.135-13.524a49.027,49.027,0,0,1-1.687,13.8c-1.136,4.039-3.042,8.113-6.2,10.954-8.62,7.746-36.141,12.772-43.58,4.817-1.7-1.818-2.168-5.814-1.39-11.26,2.623-18.411,19.556-53.45,51.781-77.387,9.45-6.994,20.317-4.371,23.429,1.136s3.5,44.026,5.193,46.4,2.422,21.252,2.422,21.252l3.8,21.585,2.422.288Z" transform="translate(-160.144 -196.938)" fill="#afafaf"/>
      <g id="Group_78" data-name="Group 78" transform="translate(37.98 95.022)" clip-path="url(#clip-path-4)">
        <path id="Path_1342" data-name="Path 1342" d="M289.053,395.8c-3.313,1.888-10.928,5.98-14.652,5.98H264.373L263.849,394s-7.58-20.492-8.366-25.213-4.135-13.524-4.135-13.524a49.028,49.028,0,0,1-1.687,13.8c-1.137,4.039-3.042,8.113-6.2,10.954-8.62,7.746-36.141,12.772-43.58,4.817a6.828,6.828,0,0,1-1.5-3.5.316.316,0,0,1,0-.1c-.061-.542-.131-1.093-.192-1.644a30.441,30.441,0,0,1,.323-6.023c2.623-18.411,19.556-53.45,51.781-77.387A20.317,20.317,0,0,1,263.246,292c-1.416,3.366-4.817,11.828-4.633,14.8.227,3.733,5.167,39.55,5.245,43.082s8.6,1.836,8.6,1.836-4.852,9.617-6.924,8.891,2.124,12.344,2.675,15.028,4.371,5.927,8.987,6.863,4.642,3.663,4.642,3.663-6.294,7.938-10.185,6.74,2.177,5.018,2.413,5.481C274.208,398.655,282.251,397.483,289.053,395.8Z" transform="translate(-198.127 -291.963)" fill="rgba(0,0,0,0.7)" opacity="0.2"/>
      </g>
      <path id="Path_1344" data-name="Path 1344" d="M290.684,394.857s-11.417,6.915-16.261,6.915H264.37L263.845,394s-7.58-20.492-8.366-25.213-4.135-13.524-4.135-13.524a49.027,49.027,0,0,1-1.687,13.8c-1.136,4.039-3.042,8.113-6.2,10.954-8.62,7.746-36.141,12.772-43.58,4.817-1.7-1.818-2.168-5.814-1.39-11.26,2.623-18.411,19.556-53.45,51.781-77.387,9.45-6.994,20.317-4.371,23.429,1.136s3.5,44.026,5.193,46.4,2.422,21.252,2.422,21.252l3.8,21.585,2.422.288Z" transform="translate(-160.144 -196.938)" fill="#ebc6cc" stroke="#263238" stroke-linecap="round" stroke-linejoin="round" stroke-width="1"/>
      <path id="Path_1345" data-name="Path 1345" d="M249.666,378.928c-1.137,4.039-3.042,8.113-6.2,10.954-8.62,7.746-36.141,12.772-43.58,4.817-1.7-1.818-2.168-5.814-1.39-11.26,14.976-4.231,48.458-13.638,48.441-12.974C246.921,370.8,248.189,374.5,249.666,378.928Z" transform="translate(-160.145 -206.807)" fill="#263238"/>
      <path id="Path_1346" data-name="Path 1346" d="M225.312,297.467c8.218-5.717,17.589-6.6,23.464,2.413s.551,51.9.874,53.625-1.888,9.188-1.888,9.188l-5.6,34.969h2.081l1.381,7.247s-24.478,6.242-27.022,5.551-.1-8.646-.1-8.646l2.3-32.871s-8.314,22.275-28.421,22.608c-20.894.35-38.728-23.167-25.93-40.118s21.1-16.252,21.1-16.252S216.36,303.682,225.312,297.467Z" transform="translate(-155.619 -197.085)" fill="#afafaf"/>
      <g id="Group_79" data-name="Group 79" transform="translate(6.526 96.049)" clip-path="url(#clip-path-5)">
        <path id="Path_1347" data-name="Path 1347" d="M245.649,409.328s-24.478,6.242-27.022,5.551-.1-8.646-.1-8.646l2.3-32.871s-8.314,22.275-28.421,22.608c-20.894.35-38.728-23.167-25.93-40.118,11.549-15.282,19.425-16.217,20.859-16.243-2.4,2.36-6.19,6.347-7.116,8.7-1.39,3.5-.6,9.617-3.025,9.415s-1.04-9-1.04-9-9.678,8.078-9.914,18.455.577,18.979,12.4,20.789,31.245-20.6,31.245-20.6a29.871,29.871,0,0,1-2.92-5.761c-1.058-3,5.394,1.215,5.394,1.215s-4.843-13.446-3.917-14.136c.393-.3,1.346.586,2.3,1.7a11.977,11.977,0,0,1-.944-10.814c3.252-7.938,2.736-11.365,6.8-11.365s2.124,2.955,3.095,7.588,6.915,22.293,6.12,22.337-4.048,1.425-3,4.424.21,12.466,4.9,16.724-4.371,9.879-4.9,14.792-2.238,10.587,1.023,8.445,9.363-4.555,15.448.428c0,0-13.83,5.464-13.472,6.286s9.739,1.25,14.04,0a12.851,12.851,0,0,1,5.744-.157Z" transform="translate(-162.147 -297.544)" fill="rgba(0,0,0,0.7)" opacity="0.2"/>
      </g>
      <path id="Path_1349" data-name="Path 1349" d="M225.312,297.467c8.218-5.717,17.589-6.6,23.464,2.413s.551,51.9.874,53.625-1.888,9.188-1.888,9.188l-5.6,34.969h2.081l1.381,7.247s-24.478,6.242-27.022,5.551-.1-8.646-.1-8.646l2.3-32.871s-8.314,22.275-28.421,22.608c-20.894.35-38.728-23.167-25.93-40.118s21.1-16.252,21.1-16.252S216.36,303.682,225.312,297.467Z" transform="translate(-155.619 -197.085)" fill="#ebc6cc" stroke="#263238" stroke-linecap="round" stroke-linejoin="round" stroke-width="1"/>
      <path id="Path_1350" data-name="Path 1350" d="M228.046,374.435s-1.18-14.722-1.1-15.43-2.719-13.839-2.378-20.064-5.875,3.042-4.843,8.261a34.5,34.5,0,0,0,4.126,10.115" transform="translate(-162.846 -202.586)" fill="rgba(0,0,0,0)" stroke="#263238" stroke-linecap="round" stroke-linejoin="round" stroke-width="1"/>
      <path id="Path_1351" data-name="Path 1351" d="M216.64,357.37s5.656,11.077,10.395,11.452" transform="translate(-162.473 -205.164)" fill="rgba(0,0,0,0)" stroke="#263238" stroke-linecap="round" stroke-linejoin="round" stroke-width="1"/>
      <path id="Path_1352" data-name="Path 1352" d="M251.636,412.69l-14.346,4.266a54.3,54.3,0,0,1,7.169-4.266" transform="translate(-165.07 -212.122)" fill="rgba(0,0,0,0)" stroke="#263238" stroke-linecap="round" stroke-linejoin="round" stroke-width="1"/>
      <path id="Path_1353" data-name="Path 1353" d="M289.056,348.27s-1.539,12-4.056,14.757" transform="translate(-171.071 -204.02)" fill="rgba(0,0,0,0)" stroke="#263238" stroke-linecap="round" stroke-linejoin="round" stroke-width="1"/>
      <path id="Path_1354" data-name="Path 1354" d="M245.6,351.18s5.14,11.758,8.375,12.239" transform="translate(-166.115 -204.386)" fill="rgba(0,0,0,0)" stroke="#263238" stroke-linecap="round" stroke-linejoin="round" stroke-width="1"/>
      <path id="Path_1355" data-name="Path 1355" d="M189.935,341.22s-9.8,8.244-8.873,14.809" transform="translate(-157.99 -203.133)" fill="rgba(0,0,0,0)" stroke="#263238" stroke-linecap="round" stroke-linejoin="round" stroke-width="1"/>
      <path id="Path_1356" data-name="Path 1356" d="M273.3,407.38s6.749-3.7,7.676-5.543-3.4-3.5-3.4-3.5" transform="translate(-169.599 -210.317)" fill="rgba(0,0,0,0)" stroke="#263238" stroke-linecap="round" stroke-linejoin="round" stroke-width="1"/>
    </g>
    <path id="Path_2757" data-name="Path 2757" d="M18,0A18,18,0,1,1,0,18,18,18,0,0,1,18,0Z" transform="translate(79.14 86.59)" fill="#030528"/>
    <path id="Path_2756" data-name="Path 2756" d="M6.648,0a.576.576,0,0,1-.42-.18.576.576,0,0,1-.18-.42V-12.024L2.76-9.5a.544.544,0,0,1-.36.144.606.606,0,0,1-.48-.288L.5-11.5a.687.687,0,0,1-.12-.36.547.547,0,0,1,.288-.5l5.52-4.272a1.052,1.052,0,0,1,.576-.168h3a.585.585,0,0,1,.432.168.585.585,0,0,1,.168.432V-.6a.6.6,0,0,1-.168.42A.564.564,0,0,1,9.768,0Z" transform="translate(90.14 113.59)" fill="#fff"/>
  </g>
</svg>
