<svg xmlns="http://www.w3.org/2000/svg" width="652.121" height="654.466" viewBox="0 0 652.121 654.466">
  <defs>
    <style>
      .cls-1 {
        fill: #1e2040;
      }

      .cls-2 {
        opacity: 0.36;
      }
    </style>
  </defs>
  <g id="Group_138" data-name="Group 138" transform="translate(175.724 -435.767)">
    <g id="freepik--Plants--inject-2" transform="translate(81.842 922.863) rotate(-19)">
      <path id="Path_1357" data-name="Path 1357" class="cls-1" d="M389.034,377.587c3.1,1.358,10.692,1.141,10.7,1.141s-1.632-4.975-1.78-5.272c-1.666-3.48-6.927-9.243-11.217-8.661a5.123,5.123,0,0,0-4.108,6.413C383.34,374.266,386.387,376.446,389.034,377.587Z" transform="translate(-121.867 -342.83)"/>
      <path id="Path_1358" data-name="Path 1358" class="cls-1" d="M391.592,402.319c3.218.479,10-1.495,10.532-1.643a91.983,91.983,0,0,0,4.108,11.411c.936,2.157,1.94,4.3,2.978,6.436l-1.267-1.814c-2.533-2.921-9.129-7.075-13.111-5.386a5.112,5.112,0,0,0-2.282,7.269c1.472,2.682,4.987,4.005,7.851,4.416s8.707-1.141,10.27-1.563c.411.81.8,1.632,1.21,2.442,1.963,3.914,3.937,7.805,5.763,11.674.639,1.369,1.221,2.739,1.8,4.108a14.175,14.175,0,0,0-1.141-1.575c-2.533-2.921-9.129-7.086-13.111-5.386a5.123,5.123,0,0,0-2.282,7.269c1.472,2.67,5,3.994,7.851,4.416s8.136-.993,9.962-1.495c.559,1.415,1.141,2.841,1.6,4.234.308.97.673,1.871.924,2.853s.536,1.928.8,2.876c.445,1.849.913,3.754,1.3,5.569.274,1.255.525,2.465.765,3.674-.616-1.358-1.894-4.005-2.031-4.222-2.054-3.264-7.988-8.376-12.141-7.314a5.123,5.123,0,0,0-3.343,6.847c1.05,2.876,4.336,4.713,7.086,5.557,3.047.924,9.768.08,10.612,0,.4,2.008.776,3.971,1.141,5.82.719,4.1,1.267,7.76,1.677,10.863h2.83c-.491-3.207-1.141-7.041-1.986-11.331-.411-2.043-.879-4.211-1.381-6.447a53.719,53.719,0,0,0,5.922-2.784c2.214,2.408,7.885,5.215,8.615,5.569-.776,1.894-1.541,3.731-2.282,5.454-1.575,3.617-3.058,6.847-4.37,9.54h3.058c1.141-2.51,2.373-5.375,3.674-8.536.787-1.928,1.6-4.005,2.408-6.139.81.171,7.474,1.529,10.578.822,2.807-.628,6.219-2.225,7.474-5.01a5.123,5.123,0,0,0-2.819-7.075c-4.1-1.369-10.361,3.286-12.655,6.39-.137.183-1.381,2.339-2.145,3.709.331-.879.65-1.723.981-2.625.65-1.78,1.255-3.583,1.906-5.512l.856-2.864c.308-.947.513-2,.776-3,.548-2.339,1-4.736,1.4-7.166,1.563.571,7.143,2.51,10.03,2.282s6.493-1.255,8.159-3.811a5.124,5.124,0,0,0-1.723-7.429c-3.845-1.986-10.738,1.677-13.476,4.4-.16.16-1.906,2.282-2.841,3.549.228-1.461.456-2.91.65-4.393.525-4.291.936-8.65,1.358-13,.126-1.335.274-2.659.411-3.982.559.205,7.143,2.659,10.373,2.431,2.887-.205,6.493-1.255,8.159-3.823a5.112,5.112,0,0,0-1.723-7.417c-3.846-1.985-10.738,1.677-13.476,4.393-.205.205-2.7,3.343-3.309,4.176.308-2.921.65-5.831,1.141-8.684a89.552,89.552,0,0,1,2.488-11.411c.263.091,7.12,2.682,10.441,2.453,2.876-.205,6.482-1.267,8.148-3.823a5.112,5.112,0,0,0-1.712-7.417c-3.846-1.986-10.738,1.666-13.477,4.393-.217.217-2.91,3.583-3.355,4.234a2.361,2.361,0,0,1,.171-.662,65.741,65.741,0,0,1,4.564-10.818c.981-1.917,2.031-3.709,3.081-5.42,1.232.616,6.847,3.355,9.882,3.48s6.584-.548,8.524-2.9a5.123,5.123,0,0,0-.89-7.565c-3.606-2.4-10.852.479-13.876,2.887-.171.125-1.689,1.643-2.784,2.761.491-.765.981-1.563,1.472-2.282,1.8-2.727,3.629-5.112,5.26-7.212.936-1.141,1.814-2.282,2.636-3.218,1.518,0,7.645-.217,10.27-1.472s5.6-3.515,6.23-6.493a5.135,5.135,0,0,0-4.279-6.31c-4.3-.456-9.414,5.432-10.977,8.969-.137.3-1.712,5.318-1.632,5.318h.091c-.822.924-1.677,1.928-2.6,3.047-1.677,2.065-3.56,4.416-5.443,7.109a91.141,91.141,0,0,0-5.637,8.98,66.275,66.275,0,0,0-4.815,10.852.642.642,0,0,1,0,.137c0-1.267,0-4.815-.068-5.089-.491-3.823-3.7-10.932-7.988-11.719a5.124,5.124,0,0,0-5.911,4.815c-.24,3.035,1.963,6.082,4.108,7.988,2.431,2.168,9.129,4.268,9.7,4.427a91.091,91.091,0,0,0-2.841,11.753c-.411,2.282-.753,4.656-1.073,7.006a17.441,17.441,0,0,0-.057-2.214c-.491-3.823-3.708-10.932-7.988-11.719a5.112,5.112,0,0,0-5.9,4.815c-.251,3.035,1.963,6.082,4.108,7.988s7.9,3.857,9.4,4.336c-.1.9-.228,1.8-.331,2.716-.525,4.336-1.027,8.672-1.643,12.906-.217,1.495-.479,2.955-.753,4.416v-1.917c-.5-3.823-3.709-10.932-7.988-11.719a5.112,5.112,0,0,0-5.9,4.815c-.251,3.035,1.951,6.082,4.108,7.988s7.337,3.663,9.129,4.245c-.308,1.495-.628,2.99-.993,4.416-.285.97-.479,1.928-.81,2.887s-.616,1.906-.924,2.841c-.65,1.792-1.3,3.64-1.985,5.363-.456,1.2-.924,2.339-1.381,3.492.228-1.483.628-4.4.628-4.644a19.775,19.775,0,0,0-2.659-9.677,6.262,6.262,0,0,0-.068-1.141A5.124,5.124,0,0,0,435.125,444c-4.176,1.141-6.847,8.444-7.029,12.3,0,.228.137,2.716.262,4.279-.217-.913-.411-1.792-.639-2.727-.434-1.849-.924-3.686-1.449-5.706-.285-.936-.57-1.894-.867-2.853s-.673-1.94-1-2.921c-.833-2.282-1.78-4.564-2.784-6.767,1.62-.388,7.349-1.837,9.642-3.606s4.713-4.633,4.69-7.68a5.112,5.112,0,0,0-5.523-5.249c-4.3.468-7.988,7.326-8.809,11.1,0,.24-.308,3.013-.422,4.564-.616-1.346-1.221-2.693-1.883-4.028-1.917-3.868-3.982-7.737-6.036-11.594-.628-1.141-1.232-2.362-1.849-3.549.582-.125,7.417-1.712,10-3.7,2.282-1.746,4.713-4.621,4.69-7.68a5.112,5.112,0,0,0-5.523-5.238c-4.3.468-7.988,7.315-8.809,11.1-.068.285-.422,4.279-.468,5.295-1.358-2.6-2.682-5.215-3.88-7.839a90.5,90.5,0,0,1-4.222-10.909c.274-.057,7.417-1.677,10.053-3.709,2.282-1.757,4.724-4.621,4.7-7.68a5.112,5.112,0,0,0-5.534-5.238c-4.3.468-7.988,7.314-8.809,11.091-.068.308-.445,4.564-.468,5.386a2.9,2.9,0,0,0-.217-.65,66.18,66.18,0,0,1-2.259-11.525c-.24-2.145-.354-4.211-.411-6.219,1.358-.171,7.577-1,10.156-2.556s5.192-4.085,5.511-7.12a5.112,5.112,0,0,0-4.918-5.82c-4.325,0-8.786,6.39-9.985,10.065-.068.205-.5,2.282-.787,3.846v-2.727c0-3.264.217-6.265.422-8.912.125-1.506.274-2.864.422-4.131,1.255-.867,6.253-4.393,7.794-6.927s2.659-6.014,1.518-8.821a5.123,5.123,0,0,0-7.052-2.9c-3.846,1.986-4.85,9.722-4.211,13.534,0,.331,1.506,5.386,1.563,5.34l.08-.057c-.171,1.221-.331,2.533-.491,3.971-.263,2.647-.536,5.648-.616,8.935a91.3,91.3,0,0,0,.262,10.6,66.737,66.737,0,0,0,1.963,11.708.642.642,0,0,0,0,.137c-.685-1.073-2.693-3.994-2.864-4.211-2.533-2.91-9.129-7.075-13.111-5.386a5.135,5.135,0,0,0-2.282,7.28C385.213,400.585,388.716,401.909,391.592,402.319Z" transform="translate(-121.799 -345.539)"/>
      <path id="Path_1359" data-name="Path 1359" class="cls-1" d="M456.816,379.88c.068,0,1.381-5.055,1.426-5.386.536-3.823-.685-11.525-4.564-13.408a5.124,5.124,0,0,0-6.972,3.081c-1.039,2.876.285,6.39,1.849,8.821C450.38,375.886,456.816,379.868,456.816,379.88Z" transform="translate(-112.852 -343.411)"/>
    </g>
    <g id="Group_109" data-name="Group 109" class="cls-2" transform="translate(-125.748 -345.526)">
      <path id="Path_2474" data-name="Path 2474" class="cls-1" d="M26.179,51.02c12.34,5.4,42.555,4.537,42.555,4.537S62.247,35.776,61.7,34.6C55.079,20.76,34.119-2.151,17.06.163A20.37,20.37,0,0,0,.728,25.659C3.586,37.818,15.7,46.483,26.179,51.02Z" transform="translate(107.688 861.863) rotate(21)"/>
      <path id="Path_2475" data-name="Path 2475" class="cls-1" d="M34.278,225.779c12.794,1.906,39.742-5.943,41.874-6.533a365.692,365.692,0,0,0,16.332,45.367c3.72,8.575,7.712,17.1,11.841,25.587-2.45-3.584-4.537-6.759-5.036-7.213C89.218,271.373,63,254.859,47.163,261.573a20.37,20.37,0,0,0-9.074,28.9C43.942,301.134,57.96,306.4,69.3,308.03s34.616-4.537,40.831-6.215c1.633,3.221,3.176,6.487,4.809,9.709,7.8,15.561,15.652,31.031,22.684,46.411,2.541,5.444,4.854,10.888,7.213,16.333a73.035,73.035,0,0,0-4.537-6.261c-10.026-11.614-36.294-28.173-52.127-21.413a20.37,20.37,0,0,0-9.074,28.9c5.852,10.616,19.871,15.879,31.213,17.557s32.393-3.947,39.606-5.943c2.223,5.626,4.537,11.3,6.4,16.831,1.18,3.856,2.631,7.44,3.629,11.342s2.132,7.667,3.176,11.433c1.769,7.349,3.629,14.926,5.172,22.139,1.134,4.99,2.087,9.8,3.085,14.609-2.5-5.4-7.576-15.924-8.075-16.786-8.212-12.975-31.757-33.3-48.271-29.081a20.37,20.37,0,0,0-13.293,27.221c4.129,11.433,17.194,18.737,28.173,22.094,12.068,3.675,38.789.318,42.147,0,1.588,7.985,3.085,15.788,4.537,23.138,2.858,16.287,5.036,30.85,6.669,43.19h11.3c-2-12.748-4.537-27.992-7.939-45.05-1.588-8.121-3.448-16.741-5.489-25.633a209.7,209.7,0,0,0,23.682-11.3c8.8,9.572,31.349,20.733,34.253,22.139-3.04,7.531-6.125,14.835-9.074,21.686-6.215,14.382-12.159,27.221-17.376,37.927h12.2c4.537-9.981,9.436-21.368,14.563-33.935,3.176-7.667,6.352-15.924,9.573-24.408,3.267.68,29.716,6.079,42.056,3.266,11.16-2.495,24.725-8.847,29.761-19.917a20.37,20.37,0,0,0-11.251-28.128c-16.287-5.444-41.194,13.066-50.313,25.406-.544.726-5.489,9.3-8.529,14.744,1.316-3.493,2.631-6.851,3.9-10.434,2.586-7.077,4.99-14.245,7.576-21.913l3.4-11.387c1.225-3.766,2.042-7.939,3.085-11.932,2.223-9.3,3.992-18.827,5.58-28.491,6.215,2.268,28.4,9.981,39.924,9.073s25.769-4.99,32.393-15.152a20.416,20.416,0,0,0-6.805-29.534c-15.289-7.894-42.691,6.669-53.579,17.512-.681.635-7.622,9.073-11.342,14.109.907-5.807,1.86-11.569,2.586-17.467,2.132-17.058,3.72-34.388,5.4-51.674.5-5.308,1.089-10.57,1.633-15.833,2.223.816,28.4,10.57,41.285,9.663,11.433-.817,25.769-4.991,32.392-15.2a20.325,20.325,0,0,0-6.85-29.489c-15.244-7.894-42.646,6.669-53.534,17.466-.817.817-10.8,13.293-13.157,16.6,1.225-11.614,2.541-23.183,4.537-34.525a356.1,356.1,0,0,1,9.936-45.368c1,.363,28.264,10.662,41.466,9.754,11.433-.817,25.814-5.036,32.438-15.2a20.325,20.325,0,0,0-6.851-29.489c-15.289-7.894-42.691,6.624-53.579,17.467-.862.862-11.569,14.245-13.338,16.831.272-.862.408-1.769.681-2.631a261.35,261.35,0,0,1,18.147-43.009c3.9-7.622,8.076-14.745,12.295-21.55,4.854,2.45,27.221,13.338,39.243,13.837s26.223-2.178,33.89-11.523A20.325,20.325,0,0,0,399.9,120.48c-14.336-9.527-43.145,1.906-55.167,11.478-.635.5-6.714,6.533-11.024,10.979,1.905-3.04,3.856-6.215,5.807-9.074,7.168-10.843,14.427-20.325,20.914-28.672,3.766-4.537,7.214-9.074,10.48-12.794,6.079,0,30.4-.862,40.831-5.852s22.276-13.973,24.771-25.814a20.325,20.325,0,0,0-17.013-25.088c-17.1-1.815-37.383,21.6-43.644,35.659-.544,1.179-6.805,21.141-6.487,21.141h.363c-3.266,3.675-6.669,7.667-10.344,12.113-6.669,8.212-14.155,17.557-21.6,28.264a362.44,362.44,0,0,0-22.684,35.7,271.436,271.436,0,0,0-19.145,43.144v.544c0-5.036,0-19.145-.272-20.234-2-15.2-14.744-43.462-31.757-46.592a20.325,20.325,0,0,0-23.455,19.145c-1,12.068,7.758,24.181,16.332,31.757,9.618,8.62,36.294,16.968,38.563,17.6a354.893,354.893,0,0,0-11.342,46.729c-1.633,9.074-2.994,18.51-4.264,27.856v-8.8c-1.951-15.2-14.745-43.462-31.757-46.593a20.37,20.37,0,0,0-23.5,19.145c-1,12.068,7.8,24.181,16.332,31.757s31.394,15.334,37.428,17.24c-.454,3.584-.953,7.168-1.361,10.8-2.087,17.24-4.038,34.479-6.533,51.311-.862,5.943-1.905,11.75-2.949,17.557v-7.622c-2-15.2-14.745-43.462-31.757-46.592a20.324,20.324,0,0,0-23.455,19.145c-1,12.068,7.8,24.181,16.332,31.758s29.171,14.563,36.294,16.877c-1.27,5.943-2.541,11.886-3.992,17.557-1.089,3.856-1.905,7.667-3.221,11.478s-2.45,7.577-3.629,11.3c-2.586,7.123-5.217,14.472-7.939,21.323-1.815,4.764-3.675,9.3-5.489,13.882.907-5.9,2.5-17.512,2.541-18.465a79.213,79.213,0,0,0-10.616-38.472,24.909,24.909,0,0,0-.272-4.537A20.37,20.37,0,0,0,207.31,391.28c-16.6,4.536-27.221,33.572-27.947,48.906,0,.907.544,10.8,1.043,17.013-.862-3.629-1.633-7.123-2.541-10.843-1.724-7.35-3.675-14.654-5.762-22.684-1.134-3.72-2.268-7.531-3.448-11.342s-2.677-7.713-3.992-11.614c-3.312-9.074-7.077-18.147-11.07-26.9,6.442-1.543,29.217-7.3,38.336-14.336s18.782-18.419,18.691-30.532a20.415,20.415,0,0,0-22-20.869c-17.1,1.86-31.757,29.126-35.024,44.143,0,.953-1.225,11.977-1.633,18.147-2.45-5.353-4.854-10.707-7.531-16.015-7.622-15.38-15.833-30.759-23.954-46.094-2.5-4.537-4.945-9.391-7.395-14.109,2.314-.5,29.534-6.805,39.742-14.7,9.074-6.941,18.782-18.374,18.691-30.533a20.325,20.325,0,0,0-22-20.823c-17.1,1.86-31.757,29.08-35.024,44.142,0,1.134-1.679,17.013-1.86,21.051-5.353-10.344-10.616-20.733-15.425-31.167a359.93,359.93,0,0,1-16.786-43.371c1.089-.227,29.489-6.669,39.969-14.745,9.074-6.986,18.782-18.374,18.691-30.532a20.325,20.325,0,0,0-22-20.824c-17.1,1.86-31.757,29.081-35.024,44.1-.227,1.225-1.769,18.147-1.815,21.413-.272-.862-.635-1.724-.907-2.586a263.14,263.14,0,0,1-8.937-45.594c-.953-8.529-1.406-16.741-1.633-24.725,5.4-.68,30.124-3.992,40.377-10.162s20.642-16.241,21.913-28.309a20.325,20.325,0,0,0-19.553-23.138c-17.194,0-34.933,25.406-39.7,40.014,0,.817-1.951,9.074-3.13,15.289V128.1c0-12.975.862-24.907,1.679-35.432.5-5.989,1.089-11.388,1.679-16.423C77.014,72.8,96.886,58.78,103.01,48.709s10.843-23.909,6.4-35.205A20.37,20.37,0,0,0,81.188,2.116C65.945,10.01,61.907,40.769,64.448,55.922c0,1.316,5.989,21.413,6.261,21.232l.272-.227C70.3,81.782,69.665,87,69.03,92.715c-1.043,10.525-2.132,22.457-2.4,35.523a352.871,352.871,0,0,0,1,42.146,265.316,265.316,0,0,0,7.8,46.547v.544C72.7,213.212,64.765,201.6,64.039,200.736c-10.072-11.569-36.294-28.128-52.127-21.413a20.415,20.415,0,0,0-9.074,28.945C8.918,218.883,22.936,224.145,34.278,225.779Z" transform="translate(141.118 781.293) rotate(21)"/>
      <path id="Path_2476" data-name="Path 2476" class="cls-1" d="M41.663,76.513c.272,0,5.49-20.1,5.671-21.413C49.466,39.9,44.612,9.279,29.187,1.793A20.37,20.37,0,0,0,1.468,14.042C-2.661,25.475,2.6,39.448,8.817,49.112,16.121,60.635,41.663,76.468,41.663,76.513Z" transform="translate(384.974 948.285) rotate(21)"/>
    </g>
  </g>
</svg>
