<svg xmlns="http://www.w3.org/2000/svg" width="485.644" height="116.183" viewBox="0 0 485.644 116.183">
  <defs>
    <style>
      .cls-1, .cls-2, .cls-3 {
        fill: #181b53;
      }

      .cls-2 {
        opacity: 0.59;
      }

      .cls-3 {
        opacity: 0.66;
      }
    </style>
  </defs>
  <g id="freepik--Clouds--inject-139" transform="translate(38 -36.407)">
    <path id="Path_2460" data-name="Path 2460" class="cls-1" d="M256.27,138.26c-10.5-5.73-15.28-1-19.1-5.73s10.51-17.2-18.15-29.61c0,0-1.91-26.75-41.07-27.7S149.3,102,138.79,108.65s-13.37-3.82-23.88,2.86-5.73,20.06-14.32,22S80.53,124.89,70,131.57,59.52,144,54.74,144s-14.33-3.82-20.06,0-12.41,8.59-12.41,8.59H263.91S266.78,144,256.27,138.26Z" transform="translate(63)"/>
    <path id="Path_2462" data-name="Path 2462" class="cls-2" d="M425.41,70.21c-5.63-3.07-8.19-.51-10.24-3.07s5.63-9.22-9.73-15.87c0,0-1-14.33-22-14.85s-15.36,14.34-21,17.92-7.16-2.05-12.79,1.54S346.57,66.63,342,67.65s-10.75-4.61-16.38-1-5.64,6.65-8.19,6.65-7.68-2-10.75,0S300,77.89,300,77.89H429.5S431,73.28,425.41,70.21Z"/>
    <path id="Path_2466" data-name="Path 2466" class="cls-2" d="M425.41,70.21c-5.63-3.07-8.19-.51-10.24-3.07s5.63-9.22-9.73-15.87c0,0-1-14.33-22-14.85s-15.36,14.34-21,17.92-7.16-2.05-12.79,1.54S346.57,66.63,342,67.65s-10.75-4.61-16.38-1-5.64,6.65-8.19,6.65-7.68-2-10.75,0S300,77.89,300,77.89H429.5S431,73.28,425.41,70.21Z" transform="translate(-338 30)"/>
    <path id="Path_2464" data-name="Path 2464" class="cls-3" d="M418.78,147.37c-2.44-1.33-3.55-.22-4.44-1.33s2.45-4-4.22-6.89c0,0-.44-6.21-9.55-6.44s-6.66,6.22-9.11,7.78-3.11-.89-5.55.66-1.33,4.67-3.33,5.11-4.67-2-7.11-.44-2.44,2.89-3.55,2.89-3.34-.89-4.67,0-2.89,2-2.89,2h56.2S421.23,148.71,418.78,147.37Z" transform="translate(27)"/>
  </g>
</svg>
