<svg xmlns="http://www.w3.org/2000/svg" width="310.036" height="264.291" viewBox="0 0 310.036 264.291">
  <defs>
    <style>
      .cls-1 {
        fill: #1e2040;
      }

      .cls-2 {
        fill: #e5e5e5;
      }

      .cls-3 {
        fill: #ccc;
      }

      .cls-10, .cls-11, .cls-4 {
        fill: #fff;
      }

      .cls-5 {
        fill: none;
      }

      .cls-10, .cls-5, .cls-6, .cls-7, .cls-8, .cls-9 {
        stroke: #263238;
        stroke-linecap: round;
        stroke-linejoin: round;
      }

      .cls-6 {
        fill: #253238;
      }

      .cls-7 {
        fill: #afafaf;
      }

      .cls-8 {
        fill: #ffc83d;
      }

      .cls-9 {
        fill: #263238;
      }

      .cls-11 {
        font-size: 11px;
        font-family: Rubik-Medium, Rubik;
        font-weight: 500;
      }
    </style>
  </defs>
  <g id="Location_review-bro" data-name="Location review-bro" transform="translate(-43.635 -29.9)">
    <g id="freepik--Graphics--inject-2" transform="translate(43.635 29.9)">
      <path id="Path_1363" data-name="Path 1363" class="cls-1" d="M106.3,69.394c0,5.7-10.335,17.621-10.335,17.621S85.639,75.094,85.639,69.394a10.335,10.335,0,0,1,20.663,0Zm99.029,196.848A10.321,10.321,0,0,0,195,276.57c0,5.7,10.328,17.621,10.328,17.621s10.328-11.921,10.328-17.621A10.328,10.328,0,0,0,205.331,266.242ZM291.627,29.9A10.328,10.328,0,0,0,281.3,40.228c-.022,5.678,10.328,17.621,10.328,17.621s10.306-11.943,10.306-17.621A10.335,10.335,0,0,0,291.627,29.9ZM61.948,166A10.321,10.321,0,0,0,51.62,176.325c0,5.7,10.328,17.614,10.328,17.614s10.328-11.914,10.328-17.614A10.328,10.328,0,0,0,61.948,166Zm274.612-3.621a10.335,10.335,0,0,0-10.328,10.277c0,5.707,10.328,17.621,10.328,17.621s10.328-11.892,10.328-17.621a10.328,10.328,0,0,0-10.357-10.306ZM291.627,44.6h-4.346a.724.724,0,1,1,0-1.449h4.346a.724.724,0,1,1,0,1.449Zm-44.376,235.61a.724.724,0,0,0-.724-.724h-8.691a.724.724,0,0,0,0,1.449h8.691A.724.724,0,0,0,247.251,280.213Zm-17.31,0a.724.724,0,0,0-.724-.724h-8.648a.724.724,0,0,0,0,1.449h8.648A.724.724,0,0,0,229.941,280.213Zm25.306.659a12.24,12.24,0,0,0,7.967-4.165.724.724,0,0,0-1.094-.949,10.806,10.806,0,0,1-7.018,3.672.725.725,0,0,0,.08,1.449ZM212.682,279.7a.724.724,0,0,0-.377-.956,9.285,9.285,0,0,1-5.222-5.794.725.725,0,0,0-1.383.435,10.734,10.734,0,0,0,6.033,6.663.659.659,0,0,0,.283.058A.724.724,0,0,0,212.682,279.7Zm53.523-11.443v-8.64a.724.724,0,1,0-1.449,0v8.64a.724.724,0,1,0,1.449,0Zm-59.542-3.672v-5.946a19,19,0,0,0-.21-2.8.725.725,0,1,0-1.434.217,17.049,17.049,0,0,1,.2,2.586v5.946a.724.724,0,1,0,1.449,0Zm59.542-13.631V242.3a.724.724,0,1,0-1.449,0v8.655a.724.724,0,1,0,1.449,0Zm-63.315-2.339a.724.724,0,0,0,.152-1.014,18.78,18.78,0,0,0-6.837-5.714.724.724,0,1,0-.637,1.3,17.31,17.31,0,0,1,6.308,5.28.724.724,0,0,0,1.014.152Zm-14.652-7.88a.724.724,0,0,0-.724-.724h-8.648a.724.724,0,0,0,0,1.449h8.648A.724.724,0,0,0,188.238,240.733Zm-17.3,0a.724.724,0,0,0-.724-.724H161.52a.724.724,0,0,0,0,1.449h8.691A.724.724,0,0,0,170.935,240.733Zm-17.3,0a.724.724,0,0,0-.724-.724h-8.655a.724.724,0,1,0,0,1.449h8.655A.724.724,0,0,0,153.633,240.733Zm-17.3,0a.724.724,0,0,0-.724-.724h-8.691a.724.724,0,1,0,0,1.449h8.691A.724.724,0,0,0,136.33,240.733Zm-17.31,0a.724.724,0,0,0-.724-.724h-8.648a.724.724,0,1,0,0,1.449H118.3a.724.724,0,0,0,.724-.724Zm-17.3,0a.724.724,0,0,0-.724-.724H92.345a.724.724,0,1,0,0,1.449h8.648a.724.724,0,0,0,.724-.724Zm-17.3,0a.724.724,0,0,0-.724-.724H75.072a.724.724,0,1,0,0,1.449h8.691A.724.724,0,0,0,84.415,240.733Zm-17.151-1.159a.724.724,0,0,0-.319-.971,13.4,13.4,0,0,1-5.794-5.642.724.724,0,0,0-1.282.674,14.855,14.855,0,0,0,6.4,6.265.755.755,0,0,0,.992-.333ZM59.63,224.908v-8.655a.724.724,0,1,0-1.449,0v8.655a.724.724,0,1,0,1.449,0Zm0-17.3v-8.655a.724.724,0,1,0-1.449,0v8.655a.724.724,0,0,0,1.449,0Zm0-17.31v-3.621a7.728,7.728,0,0,1,1.311-4.346.726.726,0,1,0-1.21-.8,9.176,9.176,0,0,0-1.55,5.121v3.621a.724.724,0,0,0,1.449,0Zm293.762-12.03a.725.725,0,0,0-.456-1.376,10.451,10.451,0,0,1-3.31.529h-5.07a.724.724,0,1,0,0,1.449h5.07a12.09,12.09,0,0,0,3.768-.6Zm-16.752-.123a.724.724,0,0,0-.724-.724h-8.648a.724.724,0,0,0,0,1.449h8.648A.724.724,0,0,0,336.64,178.142Zm-17.3,0a.724.724,0,0,0-.724-.724h-8.648a.724.724,0,1,0,0,1.449h8.648A.724.724,0,0,0,319.337,178.142Zm-17.3,0a.724.724,0,0,0-.724-.724h-8.655a.724.724,0,1,0,0,1.449h8.655a.724.724,0,0,0,.724-.724Zm-17.3,0a.724.724,0,0,0-.724-.724h-8.691a.724.724,0,1,0,0,1.449h8.691A.724.724,0,0,0,284.732,178.142Zm-17.3,0a.724.724,0,0,0-.724-.724H258.05a.724.724,0,0,0,0,1.449H266.7a.724.724,0,0,0,.724-.724Zm-17.31,0a.724.724,0,0,0-.724-.724h-8.648a.724.724,0,0,0,0,1.449h8.648a.724.724,0,0,0,.724-.724Zm-17.3,0a.724.724,0,0,0-.724-.724h-8.648a.724.724,0,1,0,0,1.449h8.648A.724.724,0,0,0,232.816,178.142Zm-17.3,0a.724.724,0,0,0-.724-.724h-8.626a.724.724,0,0,0,0,1.449h8.691a.724.724,0,0,0,.659-.724Zm-17.3,0a.724.724,0,0,0-.724-.724H188.8a.724.724,0,0,0,0,1.449h8.691a.724.724,0,0,0,.71-.724Zm-17.3,0a.724.724,0,0,0-.724-.724h-8.655a.724.724,0,0,0,0,1.449h8.655a.724.724,0,0,0,.724-.724Zm-17.31,0a.724.724,0,0,0-.724-.724h-8.648a.724.724,0,1,0,0,1.449h8.648a.724.724,0,0,0,.724-.724Zm-17.3,0a.724.724,0,0,0-.724-.724h-8.648a.724.724,0,1,0,0,1.449h8.648a.724.724,0,0,0,.724-.724Zm-17.3,0a.724.724,0,0,0-.724-.724h-8.655a.724.724,0,0,0,0,1.449h8.655a.724.724,0,0,0,.724-.724Zm-17.3,0a.724.724,0,0,0-.724-.724h-8.691a.724.724,0,1,0,0,1.449h8.691a.724.724,0,0,0,.724-.724Zm-17.3,0a.724.724,0,0,0-.724-.724H84.972a.724.724,0,1,0,0,1.449h8.691a.724.724,0,0,0,.724-.724Zm-17.31,0a.724.724,0,0,0-.724-.724H67.706a.724.724,0,1,0,0,1.449h8.648a.724.724,0,0,0,.724-.724Zm283.187-5.7a11.943,11.943,0,0,0,1.362-5.541v-3.237a.724.724,0,1,0-1.449,0V166.9a10.5,10.5,0,0,1-1.2,4.867.724.724,0,1,0,1.282.674Zm1.362-17.433v-8.648a.724.724,0,1,0-1.449,0v8.648a.724.724,0,1,0,1.449,0Zm0-17.3v-3a12,12,0,0,0-1.449-5.794.723.723,0,0,0-1.267.7,10.56,10.56,0,0,1,1.3,5.07v3a.724.724,0,0,0,1.449,0ZM353.66,124.17a.724.724,0,0,0-.478-.905,12.008,12.008,0,0,0-3.52-.521h-5.294a.724.724,0,1,0,0,1.449h5.294a10.357,10.357,0,0,1,3.093.464.833.833,0,0,0,.869-.485Zm-17.216-.724a.724.724,0,0,0-.724-.724h-8.691a.724.724,0,1,0,0,1.449h8.655a.724.724,0,0,0,.724-.7Zm-17.31,0a.724.724,0,0,0-.724-.724h-8.677a.724.724,0,1,0,0,1.449h8.648a.724.724,0,0,0,.717-.7Zm-17.3,0a.724.724,0,0,0-.724-.724h-8.684a.724.724,0,1,0,0,1.449h8.619a.724.724,0,0,0,.724-.7Zm-17.3,0a.724.724,0,0,0-.724-.724h-8.691a.724.724,0,1,0,0,1.449h8.655a.724.724,0,0,0,.724-.7Zm-17.3,0a.724.724,0,0,0-.724-.724h-8.691a.724.724,0,1,0,0,1.449h8.655a.724.724,0,0,0,.724-.7Zm-17.3,0a.724.724,0,0,0-.724-.724h-8.691a.724.724,0,1,0,0,1.449h8.655a.724.724,0,0,0,.724-.7Zm-17.31,0a.724.724,0,0,0-.724-.724h-8.684a.724.724,0,1,0,0,1.449h8.648a.724.724,0,0,0,.724-.7Zm-17.3,0a.724.724,0,0,0-.724-.724H205.9a.724.724,0,1,0,0,1.449h8.648a.724.724,0,0,0,.724-.7Zm-17.3,0a.724.724,0,0,0-.724-.724h-8.691a.724.724,0,1,0,0,1.449h8.655a.724.724,0,0,0,.724-.7Zm-17.3,0a.724.724,0,0,0-.724-.724H171.29a.724.724,0,1,0,0,1.449h8.691a.724.724,0,0,0,.688-.7Zm-17.3,0a.724.724,0,0,0-.724-.724h-8.662a.724.724,0,0,0,0,1.449h8.655a.724.724,0,0,0,.7-.7Zm-17.31,0a.724.724,0,0,0-.724-.724h-8.684a.724.724,0,1,0,0,1.449h8.64a.724.724,0,0,0,.724-.7Zm-17.3,0a.724.724,0,0,0-.724-.724h-8.684a.724.724,0,1,0,0,1.449h8.648a.724.724,0,0,0,.724-.7Zm-17.3,0a.724.724,0,0,0-.724-.724h-8.691a.724.724,0,1,0,0,1.449h8.655a.724.724,0,0,0,.724-.7Zm-16.8-2.173a.724.724,0,0,0,0-1.028,8.916,8.916,0,0,1-2.788-6.518v-.782a.724.724,0,1,0-1.449,0v.782a10.357,10.357,0,0,0,3.237,7.561.638.638,0,0,0,.942-.007ZM91.867,104.3V95.656a.724.724,0,0,0-1.449,0v8.655a.724.724,0,0,0,1.449,0Zm0-17.31V85.183a10.784,10.784,0,0,1,1.84-6.04.744.744,0,1,0-1.253-.8,12.2,12.2,0,0,0-2.093,6.852V87a.724.724,0,1,0,1.449,0Zm8.358-12.312a10.791,10.791,0,0,1,2.462-.282h6a.724.724,0,0,0,0-1.449h-6a12.429,12.429,0,0,0-2.788.319.723.723,0,0,0,.181,1.427.623.623,0,0,0,.109-.043Zm17.23-.456a11.7,11.7,0,0,0,7.569-4.838.723.723,0,1,0-1.188-.826,10.277,10.277,0,0,1-6.627,4.237.727.727,0,1,0,.123,1.449ZM127.074,60.7V54.815a10.484,10.484,0,0,1,.318-2.562.724.724,0,1,0-1.4-.357,11.588,11.588,0,0,0-.369,2.9v5.881a.724.724,0,0,0,1.449,0Zm5.07-14.71a10.183,10.183,0,0,1,5.135-1.383h2.9a.724.724,0,0,0,0-1.449h-2.9a11.639,11.639,0,0,0-5.867,1.579.725.725,0,1,0,.732,1.253Zm147.171-2.108a.724.724,0,0,0-.724-.724h-8.64a.724.724,0,0,0,0,1.449h8.64A.724.724,0,0,0,279.314,43.878Zm-17.3,0a.724.724,0,0,0-.724-.724h-8.64a.724.724,0,0,0,0,1.449H261.3a.724.724,0,0,0,.724-.724Zm-17.3,0a.724.724,0,0,0-.724-.724h-8.64a.724.724,0,0,0,0,1.449H244a.724.724,0,0,0,.724-.724Zm-17.31,0a.724.724,0,0,0-.724-.724h-8.633a.724.724,0,0,0,0,1.449h8.648a.724.724,0,0,0,.724-.724Zm-17.3,0a.724.724,0,0,0-.724-.724h-8.633a.724.724,0,0,0,0,1.449h8.648a.724.724,0,0,0,.724-.724Zm-17.3,0a.724.724,0,0,0-.724-.724h-8.64a.724.724,0,0,0,0,1.449h8.655a.724.724,0,0,0,.724-.724Zm-17.3,0a.724.724,0,0,0-.724-.724h-8.64a.724.724,0,0,0,0,1.449h8.655a.724.724,0,0,0,.724-.724Zm-17.3,0a.724.724,0,0,0-.724-.724h-8.64a.724.724,0,0,0,0,1.449h8.655a.724.724,0,0,0,.724-.724ZM266.205,233.527v-4.346a.724.724,0,1,0-1.449,0v4.346a.724.724,0,1,0,1.449,0Z" transform="translate(-51.62 -29.9)"/>
    </g>
    <g id="freepik--Window--inject-2" transform="translate(101.496 64.73)">
      <path id="Path_1367" data-name="Path 1367" class="cls-2" d="M179.772,78H368.081a2.962,2.962,0,0,1,2.97,2.962V268.214H176.81V80.962A2.962,2.962,0,0,1,179.772,78Z" transform="translate(-176.81 -77.993)"/>
      <path id="Path_1368" data-name="Path 1368" class="cls-3" d="M218.927,163.866a5.034,5.034,0,1,1-5.026-5.026,5.034,5.034,0,0,1,5.026,5.026Z" transform="translate(-185.647 -100.283)"/>
      <path id="Path_1369" data-name="Path 1369" class="cls-4" d="M371.252,99.233l-25.139,24.14a56.833,56.833,0,0,0-11.059.145,1.231,1.231,0,0,1-.92-.34c-4.708-3.694-9.1-30.6-11-45.18h-1.376c1.514,11.588,5.939,41.87,11.53,46.259a2.593,2.593,0,0,0,1.941.623,52.306,52.306,0,0,1,9.575-.246l-20.345,19.555-28.623-21.206a7.286,7.286,0,0,0-9.611.826c-3.078,3.223-5.41,5.83-6.946,7.75-2.028,2.528-5.229,6.518-8.8,10.864l-10.639-8.568h0c6.316-8.329,11.777-15.528,15-19.236,6.555-7.54,21.728-26.559,29.695-36.59H302.78c-8.1,10.212-22.612,28.377-28.971,35.692-3.252,3.737-8.691,10.944-15.036,19.287l-14.485-11.668a.666.666,0,0,0-1.028-.826l-14.225-11.451a.688.688,0,1,0-.862,1.065L242.4,121.576c-2.035,2.615-7.75,9.988-11.827,15.492l-38.125-29.391a.688.688,0,0,0-.84,1.086l38.154,29.412c-.84,1.144-1.586,2.173-2.173,3.035-4.519,6.518-10.567,12.74-21.177,9.343-10.864-3.476-12.312-11.465-12.312-11.8a.724.724,0,0,0-.232-.42l-9.908-8.51c.724-5.287,1.572-12.711,2.5-23.176.985-11.074,1.76-22.134,2.173-28.659h-1.34c-1.094,16.658-2.8,37.51-4.556,50.778l-5.193-4.418v1.811l4.968,4.273c-.905,6.518-1.825,10.864-2.673,11.465a15.986,15.986,0,0,0-2.3,1.3v1.666a17.085,17.085,0,0,1,2.854-1.717c.587-.261,1.709-.724,3.332-11.675l9.024,7.757c.326,1.528,2.491,9.2,13.218,12.631a19.9,19.9,0,0,0,6.106,1.021c7.9,0,12.964-5.606,16.615-10.864.579-.84,1.318-1.854,2.173-2.977l14.674,11.313c-7.873,10.14-15.622,19.555-21.04,24.625-6.46,6.011-14.608,13.037-21.243,18.672-9.292-6.1-18.005-12.689-18.107-12.776H185.1l-.043-.036-7.474-4.056v1.557l5.294,2.9c-1.267.319-3.151.775-5.294,1.217v1.282c3.324-.681,6.062-1.4,7-1.651,1.528,1.152,9.278,6.938,17.585,12.4-6.265,5.294-10.922,9.1-11.016,9.184a.687.687,0,1,0,.869,1.065c.094-.08,4.911-4.027,11.342-9.459,1.912,1.238,3.831,2.448,5.7,3.571l4.346,2.557c3.737,2.209,8.286,4.9,12.783,7.735L213.072,223.4a.69.69,0,0,0,.449,1.159c.123,0,12.139,1.05,21.9,14.8,8.5,11.965,16.557,22.025,30.788,28.84h3.332c-15.695-6.685-24.1-17.1-33-29.637-8.307-11.711-18.056-14.529-21.576-15.21l12.414-13.479c8.974,5.729,17.448,11.943,18.454,15.97,1.449,5.874,8.59,13.116,12.016,16.593.876.891,1.63,1.659,1.8,1.912.956,1.449,7.243,5,8.467,5.707l.152.058c1.231.348,8.793,2.4,14.789,2.4,3.129,0,5.83-.558,6.989-2.216,1.854-2.636,7.243-6.881,11.588-10.285a61.452,61.452,0,0,0,6.7-5.671c.268-.326,1.5-1.449,3.469-3.245l5.113,5.113-39.038,31.962h2.173l37.843-30.991,6.75,6.75L297.37,268.182h2.064l26.66-23.7a.681.681,0,0,0,0-1l-7.163-7.163,32.787-26.856,11.139,8.966-41.189,36.612a4.677,4.677,0,0,0,6.055,7.127l42.992-37.415.608.492v-2.839l-.645.558-5.7-4.585,6.345-5.642v-1.832l-7.424,6.6-11.1-8.93,18.447-15.13v-1.738l-19.628,16.021-6.967-5.613c9.22-8.047,18.722-16.3,26.581-23.126v-1.818c-5.533,4.8-16.412,14.254-27.667,24.075l-13.761-11.074c12.117-11.936,28.413-28.094,30.991-31.245,4.346-5.316,6.062-20.8,1.9-28.2-2.513-4.469-8.691-6.431-14.818-7.17L371.23,101.1Zm-7.395,120.1,5.685,4.577-42.79,37.242a3.313,3.313,0,0,1-4.266-5.07Zm-83.522-86.912c1.449-1.861,3.86-4.5,6.866-7.663a5.924,5.924,0,0,1,7.8-.666l28.449,21.047-22.6,21.728-29.311-23.611c4.889-5.968,8.7-10.726,8.8-10.857Zm-21.344,2.506,10.6,8.532c-4.012,4.889-8.394,10.14-12.052,14.391l-10.14-7.793C251.364,144.984,255.312,139.784,258.991,134.924Zm-27.363,2.955c4.056-5.483,9.763-12.841,11.805-15.47l14.485,11.653c-3.687,4.874-7.641,10.075-11.588,15.152Zm-6.243,38.031c5.483-5.07,13.283-14.616,21.192-24.777l10.06,7.757c-3.39,3.9-6.019,6.728-6.91,7.243-2.412,1.383-21.395,10.777-30.224,15.144,2.057-1.84,4.041-3.643,5.888-5.367Zm1.673,32.215c-4.483-2.832-9.082-5.548-13.037-7.887-1.557-.92-3.006-1.774-4.295-2.549-1.745-1.05-3.534-2.173-5.316-3.324,3.484-2.955,7.366-6.287,11.2-9.647h0c1.289-.637,31.607-15.579,34.765-17.382,1.021-.587,3.853-3.621,7.395-7.692h.036a.674.674,0,0,0,.543-.268.666.666,0,0,0,.123-.55c3.781-4.346,8.242-9.741,12.153-14.485l29.217,23.466-15.028,14.435h-.036l-23.35,28.739-20.982-16.448a.724.724,0,0,0-.934.08Zm61.773,41.428c-2.383,3.4-15.318.666-20.207-.724-2.781-1.572-7.33-4.346-7.923-5.229a21.931,21.931,0,0,0-1.963-2.115c-3.339-3.39-10.285-10.451-11.661-15.934-1.108-4.44-9.6-10.763-18.831-16.658l11.849-12.863,21,16.52a.724.724,0,0,0,.956-.1l22.735-27.986,7.112,61.8a22.846,22.846,0,0,0-3.064,3.288Zm22.358-19.816c-2.267,2.042-3.715,3.39-4.034,3.766a63.129,63.129,0,0,1-6.518,5.468c-2.535,2-5.251,4.143-7.518,6.127l-7.112-62.084L300.911,168.7l26.841,21.561c-6.88,6.779-12.168,11.943-12.312,12.081a.724.724,0,0,0-.2.391Zm32.411-26.7,6.931,5.584-32.672,26.754-5.157-5.157c6.272-5.635,18.251-16.137,30.9-27.182Zm-1.086-.876c-11.407,9.959-23.039,20.156-29.695,26.139l3.766-25.117c1.079-1.057,6.033-5.9,12.269-12.037ZM328.752,189.3l-26.8-21.59L324.6,145.984l27.377,20.279c-6.518,6.526-15.7,15.622-23.242,23.039Zm32.773-57.941c3.86,6.881,2.245,21.764-1.767,26.667-.869,1.065-3.4,3.708-6.837,7.2l-27.348-20.279,21.054-20.171c6.359.645,12.595,2.549,14.884,6.613Z" transform="translate(-177.011 -77.99)"/>
      <path id="Path_1370" data-name="Path 1370" class="cls-3" d="M177.532,313.489h48.526c-3.324-1.593-8.322-4.1-8.93-5-.913-1.369-5.939-10.06-8.691-10.516s-3.658,2.745-3.658,2.745l5.939,9.6-2.281-1.376s-5.49-5.946-6.859-6.859,0-4.57.456-7.315,3.621-4.57,4.57-6.859,0-9.147,0-11.429-4.114-9.147-6.859-14.637-11.885-16-16.919-18.288a19.555,19.555,0,0,0-5.316-1.354Z" transform="translate(-177.003 -123.269)"/>
      <path id="Path_1371" data-name="Path 1371" class="cls-3" d="M332.355,153.15,325.04,162.3l9.147,11.892,16.919-8.691Z" transform="translate(-217.682 -98.714)"/>
      <path id="Path_1372" data-name="Path 1372" class="cls-3" d="M343.766,209.98,333.25,220.04l4.114,22.4,11.429,3.2,3.665-9.6,10.973-10.516Z" transform="translate(-219.946 -114.384)"/>
      <path id="Path_1373" data-name="Path 1373" class="cls-5" d="M179.772,78H368.081a2.962,2.962,0,0,1,2.97,2.962V268.214H176.81V80.962A2.962,2.962,0,0,1,179.772,78Z" transform="translate(-176.81 -77.993)"/>
      <path id="Path_1374" data-name="Path 1374" class="cls-6" d="M179.772,78H368.081a2.962,2.962,0,0,1,2.97,2.962v33.613H176.81V80.962A2.962,2.962,0,0,1,179.772,78Z" transform="translate(-176.81 -77.993)"/>
      <rect id="Rectangle_205" data-name="Rectangle 205" class="cls-7" width="153.182" height="6.402" transform="translate(22.731 19.887)"/>
      <path id="Path_1376" data-name="Path 1376" class="cls-8" d="M179.772,78H368.081a2.962,2.962,0,0,1,2.97,2.962v7.75H176.81v-7.75A2.962,2.962,0,0,1,179.772,78Z" transform="translate(-176.81 -77.993)"/>
      <circle id="Ellipse_14" data-name="Ellipse 14" class="cls-4" cx="1.463" cy="1.463" r="1.463" transform="translate(184.782 4.085)"/>
      <circle id="Ellipse_15" data-name="Ellipse 15" class="cls-4" cx="1.463" cy="1.463" r="1.463" transform="translate(178.741 4.085)"/>
      <circle id="Ellipse_16" data-name="Ellipse 16" class="cls-4" cx="1.463" cy="1.463" r="1.463" transform="translate(172.701 4.085)"/>
    </g>
    <g id="freepik--Locations--inject-2" transform="translate(126.201 105.166)">
      <path id="Path_1377" data-name="Path 1377" class="cls-9" d="M364.414,168H340.3a3.418,3.418,0,0,0-3.426,3.419v22.655a3.419,3.419,0,0,0,3.426,3.419h7.134l5.244,10.342,4.816-10.321h6.924a3.419,3.419,0,0,0,3.418-3.419V171.419A3.419,3.419,0,0,0,364.414,168Z" transform="translate(-245.649 -143.245)"/>
      <circle id="Ellipse_17" data-name="Ellipse 17" class="cls-10" cx="2.673" cy="2.673" r="2.673" transform="translate(104.033 66.879)"/>
      <circle id="Ellipse_18" data-name="Ellipse 18" class="cls-10" cx="2.673" cy="2.673" r="2.673" transform="translate(21.554 0)"/>
      <path id="Path_1383" data-name="Path 1383" class="cls-10" d="M294.655,227.6a2.673,2.673,0,1,1-.78-1.894,2.673,2.673,0,0,1,.78,1.894Z" transform="translate(-232.535 -158.94)"/>
      <circle id="Ellipse_19" data-name="Ellipse 19" class="cls-10" cx="2.673" cy="2.673" r="2.673" transform="translate(0 45.846)"/>
      <path id="Path_1384" data-name="Path 1384" class="cls-10" d="M227.88,292.67a2.68,2.68,0,1,1-2.68-2.68,2.68,2.68,0,0,1,2.68,2.68Z" transform="translate(-214.119 -176.882)"/>
      <circle id="Ellipse_20" data-name="Ellipse 20" class="cls-10" cx="2.673" cy="2.673" r="2.673" transform="translate(134.988 108.69)"/>
      <circle id="Ellipse_21" data-name="Ellipse 21" class="cls-10" cx="2.673" cy="2.673" r="2.673" transform="translate(148.684 26.37)"/>
      <circle id="Ellipse_22" data-name="Ellipse 22" class="cls-10" cx="2.673" cy="2.673" r="2.673" transform="translate(134.351 0.449)"/>
      <path id="Path_1385" data-name="Path 1385" class="cls-10" d="M408.14,232.76a2.673,2.673,0,1,1-.78-1.894,2.68,2.68,0,0,1,.78,1.894Z" transform="translate(-263.823 -160.362)"/>
      <circle id="Ellipse_23" data-name="Ellipse 23" class="cls-10" cx="2.673" cy="2.673" r="2.673" transform="translate(67.922 41.913)"/>
      <text id="_26" data-name="26" class="cls-11" transform="translate(99.803 37.992)"><tspan x="0" y="0">26</tspan></text>
      <text id="MAJ" class="cls-11" transform="translate(94.803 49.992)"><tspan x="0" y="0">MAJ</tspan></text>
    </g>
  </g>
</svg>
