<svg xmlns="http://www.w3.org/2000/svg" xmlns:xlink="http://www.w3.org/1999/xlink" width="453.511" height="293.524" viewBox="0 0 453.511 293.524">
  <defs>
    <style>
      .cls-1, .cls-7 {
        fill: #4a4a4a;
      }

      .cls-1, .cls-13, .cls-19, .cls-2, .cls-22, .cls-3, .cls-4, .cls-8, .cls-9 {
        stroke: #263238;
      }

      .cls-1, .cls-13, .cls-16, .cls-19, .cls-2, .cls-24, .cls-3, .cls-4, .cls-8, .cls-9 {
        stroke-linecap: round;
        stroke-linejoin: round;
      }

      .cls-2 {
        fill: #bfbfbf;
      }

      .cls-18, .cls-22, .cls-3 {
        fill: #ffc83d;
      }

      .cls-4, .cls-5 {
        fill: #fff;
      }

      .cls-6 {
        clip-path: url(#clip-path);
      }

      .cls-16, .cls-21, .cls-24, .cls-8 {
        fill: none;
      }

      .cls-9 {
        fill: #757575;
      }

      .cls-10 {
        fill: #afafaf;
      }

      .cls-11 {
        clip-path: url(#clip-path-2);
      }

      .cls-12 {
        fill: rgba(0,0,0,0.7);
        opacity: 0.3;
      }

      .cls-13 {
        fill: #f2cbba;
      }

      .cls-14, .cls-19 {
        fill: #263238;
      }

      .cls-15 {
        opacity: 0.04;
      }

      .cls-16 {
        stroke: #fff;
      }

      .cls-17 {
        clip-path: url(#clip-path-3);
      }

      .cls-20 {
        clip-path: url(#clip-path-4);
      }

      .cls-22 {
        stroke-miterlimit: 10;
        opacity: 0.2;
      }

      .cls-23 {
        fill: #030528;
      }

      .cls-24 {
        stroke: #2f3380;
      }
    </style>
    <clipPath id="clip-path">
      <path id="Path_888" data-name="Path 888" class="cls-1" d="M122.38,164.035s8.488-7.8,14.363-6.864c.981.153-4.059,9.75-4.059,9.75Z" transform="translate(-122.38 -157.094)"/>
    </clipPath>
    <clipPath id="clip-path-2">
      <path id="Path_894" data-name="Path 894" class="cls-2" d="M132.885,244.93s-8.632,14.508-5.875,27.328c0,0-3.287,44.03-4.565,46.891s-9.854,15.512-12.49,33.934a227.961,227.961,0,0,1-7.234,32.954H114.2s17.136-54.229,20.648-57.066,9.975-21.806,14.54-38.733c0,0,6.157,30.028,8.608,35.759s.4,22.28,3.906,32.857c3.464,10.449,3.215,27.215,3.215,27.215s11.936,2.958,11.823,0c-.8-20.464,3.336-38.178-1.784-56.391-2.411-8.5,2.411-58.2-6.382-84.707Z" transform="translate(-102.72 -244.93)"/>
    </clipPath>
    <clipPath id="clip-path-3">
      <path id="Path_925" data-name="Path 925" class="cls-3" d="M99.754,412.03a17.2,17.2,0,0,1,11.357-.225l-.547,6.8,6.985-6.575s-4.4,8.271-3.1,10.8,9,3.729,10.264,5.377,1.672,5,1.672,5H96.41l3.1-10.376Z" transform="translate(-96.41 -410.924)"/>
    </clipPath>
    <clipPath id="clip-path-4">
      <path id="Path_931" data-name="Path 931" class="cls-4" d="M143.321,234.259c-3.151,8.279-33.677,6.374-39.617,1.72a14.214,14.214,0,0,1-3.585-5.522,67.8,67.8,0,0,1-4.22-16.686h0c-.185-1.487-.313-2.894-.37-4.155-.137-2.829.064-4.959.667-5.731,2.411-3.062,5.1-6.028,5.1-6.028s-4.694-25.077,0-27.472a39.489,39.489,0,0,1,12.539-4.823c6.784-1.2,18.2-4.573,23.309,2.411a6.7,6.7,0,0,1,.667,1.173C142.63,179.363,146.335,226.334,143.321,234.259Z" transform="translate(-95.489 -163.69)"/>
    </clipPath>
  </defs>
  <g id="Journey-bro" transform="translate(1.678 -92.662)">
    <g id="freepik--Character--inject-2" transform="translate(87.48 92.662)">
      <path id="Path_886" data-name="Path 886" class="cls-5" d="M122.38,164.035s8.488-7.8,14.363-6.864c.981.153-4.059,9.75-4.059,9.75Z" transform="translate(-100.766 -111.691)"/>
      <g id="Group_69" data-name="Group 69" class="cls-6" transform="translate(21.614 45.403)">
        <path id="Path_887" data-name="Path 887" class="cls-7" d="M122.38,164.035s8.488-7.8,14.363-6.864c.981.153-4.059,9.75-4.059,9.75Z" transform="translate(-122.38 -157.094)"/>
      </g>
      <path id="Path_889" data-name="Path 889" class="cls-8" d="M122.38,164.035s8.488-7.8,14.363-6.864c.981.153-4.059,9.75-4.059,9.75Z" transform="translate(-100.766 -111.691)"/>
      <path id="Path_890" data-name="Path 890" class="cls-9" d="M217.878,207.85s.321,25.543,1.27,29.8a36.893,36.893,0,0,0,3.818,9.018s-2.765,55.965-1.865,58.553,4.726,20.3,4.726,20.3l4.453,67.829h-1.607s-6.06-64.019-6.06-65.916-4.766-18.583-4.766-18.583-.635-55.507,0-58.674-3.729-11.534-3.729-11.534.056-25.672-1.286-28.22C212.862,210.422,215.651,208.139,217.878,207.85Z" transform="translate(-118.517 -121.652)"/>
      <path id="Path_891" data-name="Path 891" class="cls-10" d="M132.885,244.93s-8.632,14.508-5.875,27.328c0,0-3.287,44.03-4.565,46.891s-9.854,15.512-12.49,33.934a227.961,227.961,0,0,1-7.234,32.954H114.2s17.136-54.229,20.648-57.066,9.975-21.806,14.54-38.733c0,0,6.157,30.028,8.608,35.759s.4,22.28,3.906,32.857c3.464,10.449,3.215,27.215,3.215,27.215s11.936,2.958,11.823,0c-.8-20.464,3.336-38.178-1.784-56.391-2.411-8.5,2.411-58.2-6.382-84.707Z" transform="translate(-96.908 -128.929)"/>
      <g id="Group_70" data-name="Group 70" class="cls-11" transform="translate(5.812 116.001)">
        <path id="Path_892" data-name="Path 892" class="cls-12" d="M149.145,290.838c0,.579.088,2.042.193,3.858-4.565,16.879-10.979,35.606-14.468,38.451s-20.648,57.066-20.648,57.066H102.76a227.96,227.96,0,0,0,7.234-32.954c2.612-18.422,11.252-31.041,12.49-33.91s4.533-46.819,4.533-46.819a28.718,28.718,0,0,1-.193-10.111c.611,4.364,3.215,9.782,12.056,11.18a11.711,11.711,0,0,1,1.415-10.1s-1.712,9.026,5.538,13.254c.322.185.217,1.463.217,1.463S149.112,288.74,149.145,290.838Z" transform="translate(-102.728 -249.147)"/>
        <path id="Path_893" data-name="Path 893" class="cls-12" d="M175.929,248.6c-2.934,1.776-9.291,3.85-22.827,3.3a23.2,23.2,0,0,0-5.506,6.575l-1.294-1.029s-6.2,3.528-12.932,1.8a53.971,53.971,0,0,1,5.53-14.331h35.968C175.229,246.1,175.591,247.331,175.929,248.6Z" transform="translate(-108.735 -244.928)"/>
      </g>
      <path id="Path_895" data-name="Path 895" class="cls-8" d="M132.885,244.93s-8.632,14.508-5.875,27.328c0,0-3.287,44.03-4.565,46.891s-9.854,15.512-12.49,33.934a227.961,227.961,0,0,1-7.234,32.954H114.2s17.136-54.229,20.648-57.066,9.975-21.806,14.54-38.733c0,0,6.157,30.028,8.608,35.759s.4,22.28,3.906,32.857c3.464,10.449,3.215,27.215,3.215,27.215s11.936,2.958,11.823,0c-.8-20.464,3.336-38.178-1.784-56.391-2.411-8.5,2.411-58.2-6.382-84.707Z" transform="translate(-96.908 -128.929)"/>
      <path id="Path_896" data-name="Path 896" class="cls-8" d="M151.641,259.05s-5.948,11.357.522,18.109c0,0,8.174,7.676,16.991,5.835" transform="translate(-106.019 -131.7)"/>
      <path id="Path_897" data-name="Path 897" class="cls-8" d="M157.181,298.267s-.8-6.189-2.339-8.841-1.021-3.376-1.021-3.376-6.96,2.146-11.461.506" transform="translate(-104.687 -136.998)"/>
      <path id="Path_898" data-name="Path 898" class="cls-8" d="M132.94,279a15.456,15.456,0,0,0,11.863,4.155" transform="translate(-102.839 -135.615)"/>
      <path id="Path_899" data-name="Path 899" class="cls-13" d="M152.25,151.845c.643-.265,32.721-2.66,34.32-5.964a39.383,39.383,0,0,1-3.52-9.46,72.643,72.643,0,0,0-9.541-21.38l8.038-1.471c4.823,13.551,16.2,25.575,16,38.146,0,0-17.361,11.807-35.036,13.728C157.426,165.983,152.25,151.845,152.25,151.845Z" transform="translate(-106.628 -103.149)"/>
      <path id="Path_900" data-name="Path 900" class="cls-13" d="M160.585,146.379a4.991,4.991,0,0,0-3.151.6c-3.263,1.977-2.668,7.877-2.668,7.877l-14.516-2.765c3.167-4.605,2.355-15.175,2.355-15.175,13.6-12.747,16.879-1.069,17.683,5.626A34.995,34.995,0,0,1,160.585,146.379Z" transform="translate(-104.273 -106.613)"/>
      <path id="Path_901" data-name="Path 901" class="cls-14" d="M164.257,148.673a4.991,4.991,0,0,0-3.151.6,15.817,15.817,0,0,1-2.146-6.366l5.023,1.937C164.208,146.728,164.249,148.215,164.257,148.673Z" transform="translate(-107.945 -108.907)"/>
      <path id="Path_902" data-name="Path 902" class="cls-14" d="M133.738,109.153s-1.238-7.234,10.915-8.343,23.309,2.242,23.309,11.1-7.33,27.151-21.918,19S133.738,109.153,133.738,109.153Z" transform="translate(-102.97 -100.605)"/>
      <path id="Path_903" data-name="Path 903" class="cls-13" d="M141.109,132.669c-1.254-1.607-4.565-7.378-5.1-9.581-3.279-13.543,4.131-14.524,9.645-17.265,10.489-5.2,20.029,5.345,19.21,14.733s3.609,8.279,3.408,9.573c-.169,1.093-2.982,2.2-2.982,2.2a14.04,14.04,0,0,0,.072,2.411l-.691.635c-.362,1.784-1.182,6.285-1.768,6.43-1.173.354-7.756-1.945-8.841-4.38" transform="translate(-103.283 -101.359)"/>
      <path id="Path_904" data-name="Path 904" class="cls-14" d="M170.506,129.1c-.1.683-.482,1.19-.86,1.141s-.619-.651-.53-1.334.482-1.19.868-1.133S170.627,128.412,170.506,129.1Z" transform="translate(-109.935 -105.935)"/>
      <path id="Path_905" data-name="Path 905" class="cls-8" d="M170.632,122.776a4.186,4.186,0,0,0-3.512,1.608" transform="translate(-109.546 -104.953)"/>
      <path id="Path_906" data-name="Path 906" class="cls-14" d="M160.222,105.519c-4.823-3.689-31.732-7.483-27.263,13.784-.595,2.636,1.214,7.081,7.234,14.291a5.461,5.461,0,0,1,6.044-.322s1.889-5.851,5.144-7.178a5.048,5.048,0,0,0,1.825-1.358c8.616-2.154,9.709-10.328,9.6-13.19C163.316,110.767,164.24,108.557,160.222,105.519Z" transform="translate(-102.744 -101.006)"/>
      <path id="Path_907" data-name="Path 907" class="cls-14" d="M135.03,105.824s-7.009-7.877-15.6-3.48-6.293,16.678-1.535,23.309-1.077,11.976.764,15.585,5.723,2.122,5.723,2.122a4.822,4.822,0,0,1-2.3-3.641c-.313-2.6,4.911-3.834,4.911-11.2s-1.688-13.969,4.453-10.9S135.03,105.824,135.03,105.824Z" transform="translate(-99.053 -100.685)"/>
      <path id="Path_908" data-name="Path 908" class="cls-8" d="M170.946,142.674s-2.685.137-3.826-.924" transform="translate(-109.546 -108.68)"/>
      <g id="Group_71" data-name="Group 71" class="cls-15" transform="translate(16.206 2.287)">
        <path id="Path_909" data-name="Path 909" class="cls-16" d="M140.044,107s4.18,5.337-.844,9.758" transform="translate(-120.273 -104.147)"/>
        <path id="Path_910" data-name="Path 910" class="cls-16" d="M165.43,106.22s6.43,7.017-6.43,14.877" transform="translate(-124.159 -103.994)"/>
        <path id="Path_911" data-name="Path 911" class="cls-16" d="M159.743,104.69s2.508,2.411-3.215,7.145-10,5.964-14.218,5.747" transform="translate(-120.884 -103.693)"/>
        <path id="Path_912" data-name="Path 912" class="cls-16" d="M134.517,111.324s-3.705-6.028-9.581-1.9-4.605,9.822-1.431,16.356,1.021,10.827,1.021,10.827" transform="translate(-116.668 -104.339)"/>
        <path id="Path_913" data-name="Path 913" class="cls-16" d="M122.362,103.45s-7.234.209-6.679,9.645,3.922,9.38,4.662,13.929" transform="translate(-115.652 -103.45)"/>
        <path id="Path_914" data-name="Path 914" class="cls-16" d="M145.97,129.07s-7.234,1.607-9.95-4.34" transform="translate(-119.649 -107.626)"/>
      </g>
      <path id="Path_915" data-name="Path 915" class="cls-13" d="M155.668,130.474s-1.19-4.34-4.34-2.877-.394,5.626,1.165,7.6a1.977,1.977,0,0,0,3.569-.547" transform="translate(-106.164 -105.843)"/>
      <path id="Path_916" data-name="Path 916" class="cls-14" d="M137.362,154.2l-.338,2.451c-12.4,11.6-4.212,38.853,3.577,56.263l-4.975,15.721s21.219,7.065,40.557,1.535l-1.849-18.462-2.146-14.419s1.768-4.911,2.114-14.468S156.652,148.835,137.362,154.2Z" transform="translate(-102.39 -110.974)"/>
      <path id="Path_917" data-name="Path 917" class="cls-13" d="M180.143,116.984s-3.215,1.72-4.589,1.254c0,0-6.92.394-7.113-2.532a9.139,9.139,0,0,0,5.924-3.762c1.157-1.608,11.14-1.608,10.553,1.728a3.537,3.537,0,0,1-1.881,2.524" transform="translate(-109.806 -102.625)"/>
      <path id="Path_918" data-name="Path 918" class="cls-4" d="M175.8,112.189c1.423-.225.723.5,1.736.426s1.1-.723,1.841.241,1.559,0,2.323.322" transform="translate(-111.25 -102.87)"/>
      <path id="Path_919" data-name="Path 919" class="cls-4" d="M177.28,119.189c.1-.8,2.918-2.323,3.657-3.319" transform="translate(-111.54 -103.601)"/>
      <path id="Path_920" data-name="Path 920" class="cls-4" d="M174.249,119.16c-.876-1.061,1.149-1.543,3.086-3.44" transform="translate(-110.904 -103.571)"/>
      <path id="Path_921" data-name="Path 921" class="cls-4" d="M171.246,118.491c-1.093-1.085-.635-1.471,1.077-2.267a6.149,6.149,0,0,0,2.411-1.825" transform="translate(-110.24 -103.312)"/>
      <path id="Path_922" data-name="Path 922" class="cls-3" d="M174.91,412.03s7.177-2.331,12.908-.225l1.784,6.8,3.866-6.575s-1.294,8.271,0,10.8,9,3.729,10.264,5.377,1.672,5,1.672,5H175.449l2.331-10.376Z" transform="translate(-111.075 -161.505)"/>
      <path id="Path_923" data-name="Path 923" class="cls-5" d="M99.754,412.03a17.2,17.2,0,0,1,11.357-.225l-.547,6.8,6.985-6.575s-4.4,8.271-3.1,10.8,9,3.729,10.264,5.377,1.672,5,1.672,5H96.41l3.1-10.376Z" transform="translate(-95.67 -161.505)"/>
      <g id="Group_72" data-name="Group 72" class="cls-17" transform="translate(0.74 249.419)">
        <path id="Path_924" data-name="Path 924" class="cls-18" d="M99.754,412.03a17.2,17.2,0,0,1,11.357-.225l-.547,6.8,6.985-6.575s-4.4,8.271-3.1,10.8,9,3.729,10.264,5.377,1.672,5,1.672,5H96.41l3.1-10.376Z" transform="translate(-96.41 -410.924)"/>
      </g>
      <path id="Path_926" data-name="Path 926" class="cls-8" d="M99.754,412.03a17.2,17.2,0,0,1,11.357-.225l-.547,6.8,6.985-6.575s-4.4,8.271-3.1,10.8,9,3.729,10.264,5.377,1.672,5,1.672,5H96.41l3.1-10.376Z" transform="translate(-95.67 -161.505)"/>
      <path id="Path_927" data-name="Path 927" class="cls-8" d="M175.59,218.184s4.332-5.8,5.1-9.034l.892,2.813s-2.291,6.43-6,9.766Z" transform="translate(-111.209 -121.907)"/>
      <path id="Path_928" data-name="Path 928" class="cls-19" d="M154.21,222.845s6.06,2.283,10.352.852a19.965,19.965,0,0,0,7.459-4.927l1.4,2.54s-9.685,16.879-19.21,14.323" transform="translate(-107.013 -123.795)"/>
      <path id="Path_929" data-name="Path 929" class="cls-18" d="M143.321,234.259c-3.151,8.279-33.677,6.374-39.617,1.72a14.214,14.214,0,0,1-3.585-5.522,67.8,67.8,0,0,1-4.22-16.686h0c-.185-1.487-.313-2.894-.37-4.155-.137-2.829.064-4.959.667-5.731,2.411-3.062,5.1-6.028,5.1-6.028s-4.694-25.077,0-27.472a39.489,39.489,0,0,1,12.539-4.823c6.784-1.2,18.2-4.573,23.309,2.411a6.7,6.7,0,0,1,.667,1.173C142.63,179.363,146.335,226.334,143.321,234.259Z" transform="translate(-95.489 -112.985)"/>
      <g id="Group_73" data-name="Group 73" class="cls-20" transform="translate(0 50.704)">
        <path id="Path_930" data-name="Path 930" class="cls-12" d="M143.182,235.592c-3.151,8.279-33.677,6.374-39.617,1.72a14.214,14.214,0,0,1-3.585-5.522c-1.672-5.715-3.215-12.313-4.18-16.686h0c-.6-2.757-.989-4.622-1.021-4.823a1.792,1.792,0,0,0,.651.667c1.439,1.029,5.972,2.95,20.094,3.882,0,0-10.272,2.853-18.326-.675,0,0,2.757,16.622,5.723,19.9s16.429,6.044,19.612,4.244,1.021-18.7,1.68-20.423,3.215-3.167,3.352-3.721.691-8.664.691-8.664-19.821-4.067-25.334-3.914,2.331-3.77,7.845-3.135,16.533,2.982,16.8,3.135-2.291-24.241-5.144-27.89,3.6-3.488,5.144,2.315c1.479,5.626,5.184,26.042,5.449,27.448-.064-1.117-.8-13.1-1.559-17.57-.764-4.686-.691-10.859.121-11.494s4.911-2.259,5.3-3.143a2.411,2.411,0,0,1,.8-.764C142.491,180.7,146.2,227.667,143.182,235.592Z" transform="translate(-95.35 -165.022)"/>
      </g>
      <path id="Path_932" data-name="Path 932" class="cls-8" d="M143.321,234.259c-3.151,8.279-33.677,6.374-39.617,1.72a14.214,14.214,0,0,1-3.585-5.522,67.8,67.8,0,0,1-4.22-16.686h0c-.185-1.487-.313-2.894-.37-4.155-.137-2.829.064-4.959.667-5.731,2.411-3.062,5.1-6.028,5.1-6.028s-4.694-25.077,0-27.472a39.489,39.489,0,0,1,12.539-4.823c6.784-1.2,18.2-4.573,23.309,2.411a6.7,6.7,0,0,1,.667,1.173C142.63,179.363,146.335,226.334,143.321,234.259Z" transform="translate(-95.489 -112.985)"/>
      <path id="Path_933" data-name="Path 933" class="cls-1" d="M131.365,164.734a15.4,15.4,0,0,0-7.443-3.336c-4.445-.635-8.263,5.4-8.263,5.4h2.066s2.861-5.562,8.584-.635" transform="translate(-99.448 -112.527)"/>
      <path id="Path_934" data-name="Path 934" class="cls-8" d="M108.62,170.865s11.767-.956,15.585,2.066,5.827,27.633,5.827,27.633-17.618-4.895-22.682-2.355" transform="translate(-97.817 -114.365)"/>
      <path id="Path_935" data-name="Path 935" class="cls-8" d="M103.914,194.059s-3.215-11.253-1.3-14.146,14.025-2.411,16.252,0,2.411,15.9,2.411,15.9-10.336-2.315-14.942-1.608" transform="translate(-96.768 -115.778)"/>
      <path id="Path_936" data-name="Path 936" class="cls-8" d="M97.26,221.93c.635.8,22.955,4.774,26.821,2.226" transform="translate(-95.837 -124.415)"/>
      <path id="Path_937" data-name="Path 937" class="cls-8" d="M98.45,216.09c1.607-1.27,17.683,1.9,20.986,2.058s9.195-3.5,9.541-4.147c0,0,4.4,24.008,3.07,28.622a7.339,7.339,0,0,1-4.983,5.4" transform="translate(-96.07 -122.859)"/>
      <path id="Path_938" data-name="Path 938" class="cls-8" d="M103.59,247.65s.956,5.4,20.672,6.993" transform="translate(-97.079 -129.462)"/>
      <path id="Path_939" data-name="Path 939" class="cls-8" d="M143.277,222.186c.8-.322,6.5-.924,8.584-2.226a59.675,59.675,0,0,1-.024,8.07s-6.2,2.411-7.314,1.913-1.543-3.979-1.543-3.979" transform="translate(-104.809 -124.028)"/>
      <path id="Path_940" data-name="Path 940" class="cls-8" d="M150.832,230.46s.522,10.232,0,11.63-6.084,3.456-6.719,3.3-1.752-10.015-1.752-10.015" transform="translate(-104.687 -126.089)"/>
      <path id="Path_941" data-name="Path 941" class="cls-8" d="M127.26,169.32s5.779,0,7.845,3.818,4.389,25.849,4.823,27.151" transform="translate(-101.724 -114.09)"/>
      <path id="Path_942" data-name="Path 942" class="cls-1" d="M140.25,164.707s12.86-7.057,19.587-4.879,9.444,8.978,9.444,8.978-2.3-6.35-8.7-5.94-15.617,6.768-15.617,6.768" transform="translate(-104.273 -112.146)"/>
      <path id="Path_943" data-name="Path 943" class="cls-14" d="M163.818,163.66s7.234-.6,9.452,2.789,0,12.209,0,12.209,1.9,2.251-1.382,3.874-12.121,2.508-14.218-.691S156.7,164.994,163.818,163.66Z" transform="translate(-107.507 -112.971)"/>
      <path id="Path_944" data-name="Path 944" class="cls-13" d="M172.591,182.733s-7.652,27.657-5.144,30.358a43.557,43.557,0,0,1,9.541,1.607c14.363,3.657,22.505,1,22.505,1l-1.527,8c-14.387-.378-28.3,2.234-39.938-2.508,0,0-4.734-20.447-.129-37.624,0,0,1.334-1.72,5.289-2.234a16.027,16.027,0,0,1,9.4,1.4Z" transform="translate(-107.341 -116.411)"/>
      <path id="Path_945" data-name="Path 945" class="cls-13" d="M207.064,230.816c2.733,1.792,6.687-1.021,10.344-.675s1.889-10.127,1.889-10.127-4.573-2.186-5.916-2.676-3.344,2.54-7.571,6.43" transform="translate(-117.139 -123.503)"/>
      <path id="Path_947" data-name="Path 947" class="cls-8" d="M156.8,183.633s-1.238-1.808,0-2.676c0,0-3.6-2.773-3.086-5.626" transform="translate(-106.906 -115.27)"/>
      <path id="Path_948" data-name="Path 948" class="cls-21" d="M178.114,177.94l-.346,3.528s1.776,1.133-1.4,2.676" transform="translate(-111.362 -115.782)"/>
      <path id="Path_949" data-name="Path 949" class="cls-21" d="M178.948,209.15s-3.81,2.885-5.988,2.411" transform="translate(-110.693 -121.907)"/>
      <path id="Path_950" data-name="Path 950" class="cls-8" d="M160.82,243.76s9.115,5.3,18.76,3.127" transform="translate(-108.31 -128.699)"/>
      <path id="Path_951" data-name="Path 951" class="cls-8" d="M216.6,221.93a34.165,34.165,0,0,1,5.08,1.077" transform="translate(-119.257 -124.415)"/>
      <path id="Path_952" data-name="Path 952" class="cls-8" d="M216.6,226.08s4.123,0,5.24.121" transform="translate(-119.257 -125.229)"/>
      <path id="Path_953" data-name="Path 953" class="cls-8" d="M216.6,229.425s5.184-.153,5.08.37" transform="translate(-119.257 -125.882)"/>
      <path id="Path_954" data-name="Path 954" class="cls-8" d="M99.64,434.135s8.086-.8,12.386.948" transform="translate(-96.304 -166.024)"/>
      <path id="Path_955" data-name="Path 955" class="cls-8" d="M102,424.678s4.453-1.029,6.84,0" transform="translate(-96.767 -164.114)"/>
      <path id="Path_956" data-name="Path 956" class="cls-8" d="M118.85,425.74a6.44,6.44,0,0,1,.8,3.44" transform="translate(-100.074 -164.412)"/>
      <path id="Path_957" data-name="Path 957" class="cls-8" d="M130.2,432.43a29.543,29.543,0,0,1-5.835,0" transform="translate(-101.155 -165.725)"/>
      <path id="Path_958" data-name="Path 958" class="cls-8" d="M198,425.74s2.958,3.44,2.958,4.4" transform="translate(-115.607 -164.412)"/>
      <path id="Path_959" data-name="Path 959" class="cls-8" d="M209.744,432.43a14.789,14.789,0,0,1-4.284.161" transform="translate(-117.071 -165.725)"/>
      <path id="Path_960" data-name="Path 960" class="cls-8" d="M178.16,435.2s9.058-1.431,14.468,0" transform="translate(-111.713 -166.145)"/>
      <path id="Path_961" data-name="Path 961" class="cls-8" d="M180.93,425.5s4.453.137,6.366-.989" transform="translate(-112.257 -164.171)"/>
      <path id="Path_962" data-name="Path 962" class="cls-8" d="M148.989,295.32s-4.895,29.466-11.253,36.458c0,0-8.263,22.851-11.55,28.935S118.84,386.3,118.84,386.3" transform="translate(-100.072 -138.818)"/>
      <path id="Path_963" data-name="Path 963" class="cls-8" d="M127.26,336.822s3.022-4.4,6.43,0" transform="translate(-101.724 -146.578)"/>
      <path id="Path_964" data-name="Path 964" class="cls-8" d="M175.16,342.046s1.463-7.764,7.82-1.407" transform="translate(-111.124 -147.22)"/>
      <path id="Path_965" data-name="Path 965" class="cls-8" d="M184.89,253s3.762,16.171,3.127,25.093c0,0,2.122,33.38,1.487,42.663" transform="translate(-113.034 -130.512)"/>
      <path id="Path_966" data-name="Path 966" class="cls-8" d="M195,153.77s3.946,1.985,6.277.217" transform="translate(-115.018 -111.039)"/>
    </g>
    <g id="freepik--Plants--inject-2" transform="translate(211.54 246.448)">
      <path id="Path_967" data-name="Path 967" class="cls-4" d="M356.351,392.5s-1.688-17.763,1.744-34.208-3.215-18.39-5.964-13.881-3.641,19.443-3.641,19.443-1.382-15.135-3.762-22.851c-3.488-11.309-7.234-19.925-12.209-17.377-5.779,2.942,7.652,23.309,10.3,47.148,0,0-10.818-11.14-16-21.524s-11.478-4.075-6.856,5.224,15.633,12.7,21.7,22.561c0,0-15.151-9.034-18.213-3.561-1.728,3.086,4.437,3.737,7.186,4.4,13.358,3.215,19.547,17.1,19.547,17.1Z" transform="translate(-263.285 -298.071)"/>
      <path id="Path_968" data-name="Path 968" class="cls-22" d="M356.351,392.5s-1.688-17.763,1.744-34.208-3.215-18.39-5.964-13.881-3.641,19.443-3.641,19.443-1.382-15.135-3.762-22.851c-3.488-11.309-7.234-19.925-12.209-17.377-5.779,2.942,7.652,23.309,10.3,47.148,0,0-10.818-11.14-16-21.524s-11.478-4.075-6.856,5.224,15.633,12.7,21.7,22.561c0,0-15.151-9.034-18.213-3.561-1.728,3.086,4.437,3.737,7.186,4.4,13.358,3.215,19.547,17.1,19.547,17.1Z" transform="translate(-263.285 -298.071)"/>
      <path id="Path_969" data-name="Path 969" class="cls-3" d="M362.975,367.24s.892-16.18-5.007-29.586-.635-14.468,2.524-11.1,5.57,20.713,5.57,20.713,2.773-15.545,1.511-26.3-1.173-16.8,3.255-16.8c5.626,0,4.332,26.315-.241,42.084,0,0,7.234-11.461,9.758-21.259s9.05-5.554,6.784,3.215-11.027,13.664-14.419,23.172c0,0,11.253-10.449,14.894-6.334,2.033,2.323-3.111,4.019-5.337,5.056-10.81,5.176-13.583,18.125-13.583,18.125Z" transform="translate(-270.536 -282.811)"/>
      <path id="Path_970" data-name="Path 970" class="cls-8" d="M362.33,340.408c5.015,11.309,5.3,27.81,5.3,27.81s6.591-32.785,4.935-46.618" transform="translate(-271.916 -286.231)"/>
      <path id="Path_971" data-name="Path 971" class="cls-8" d="M385.858,336.91s-7.362,15.529-14.1,21.484" transform="translate(-273.767 -289.236)"/>
      <path id="Path_972" data-name="Path 972" class="cls-8" d="M385.516,357.73s-12.442,8.038-15.5,12.908" transform="translate(-273.425 -293.322)"/>
      <path id="Path_973" data-name="Path 973" class="cls-3" d="M340.881,395.224s-9.5-13.093-11.767-27.561-7.274-12.5-8.126-7.973,6.5,20.431,6.5,20.431-10.738-11.654-15.44-21.348S303.965,344,300.235,346.4c-4.758,3.054,10.569,24.482,22.939,35.277,0,0-12.257-5.747-19.692-12.611s-10.618.217-4.019,6.374,16.662,5.53,24.659,11.7c0,0-15.143-2.693-15.954,2.717-.458,3.054,4.766,1.68,7.234,1.374,11.887-1.487,21.211,7.909,21.211,7.909Z" transform="translate(-258.874 -302.512)"/>
      <path id="Path_974" data-name="Path 974" class="cls-8" d="M329.062,371.742c1.9,12.233,10.569,26.267,10.569,26.267S316.37,373.992,310.31,361.47" transform="translate(-261.707 -305.585)"/>
      <path id="Path_975" data-name="Path 975" class="cls-8" d="M306.59,382s14.58,9.09,23.47,10.449" transform="translate(-260.977 -309.614)"/>
      <path id="Path_976" data-name="Path 976" class="cls-8" d="M317.84,399.54s14.789,0,20.005,2.492" transform="translate(-263.185 -313.056)"/>
      <path id="Path_977" data-name="Path 977" class="cls-3" d="M394.92,337.25s12.1.956,12.6,9.886C407.523,347.136,395.274,352.77,394.92,337.25Z" transform="translate(-278.312 -300.832)"/>
      <path id="Path_978" data-name="Path 978" class="cls-3" d="M424.7,338.586s6.76-9.139,17.683-4.453C442.383,334.142,435.711,345.193,424.7,338.586Z" transform="translate(-284.156 -299.958)"/>
      <path id="Path_979" data-name="Path 979" class="cls-3" d="M442.118,304.109s1.969,17.594-14.058,12.772C428.06,316.881,433.14,303.925,442.118,304.109Z" transform="translate(-284.815 -294.328)"/>
      <path id="Path_980" data-name="Path 980" class="cls-3" d="M420.658,291.94s12.659,6.824,3.352,17.176C424.01,309.116,415.136,301.722,420.658,291.94Z" transform="translate(-283.008 -291.94)"/>
      <path id="Path_981" data-name="Path 981" class="cls-3" d="M401.73,311.469s13.76-1.391,13.76,11.349C415.49,322.818,401.73,323.365,401.73,311.469Z" transform="translate(-279.648 -295.764)"/>
      <path id="Path_982" data-name="Path 982" class="cls-8" d="M417.171,357.707s-6.269-13.165-.249-26.58,8.038-24.7,4.911-32.656" transform="translate(-282.117 -293.221)"/>
      <path id="Path_983" data-name="Path 983" class="cls-8" d="M407.35,315.74s8.246,3.279,11.052,11.775" transform="translate(-280.751 -296.611)"/>
      <path id="Path_984" data-name="Path 984" class="cls-8" d="M437,312.86s-4.766,6.494-12.86,5.8" transform="translate(-284.046 -296.046)"/>
      <path id="Path_985" data-name="Path 985" class="cls-8" d="M435.626,336.79s-13.206,3.81-18.486,2.564" transform="translate(-282.672 -300.742)"/>
      <path id="Path_986" data-name="Path 986" class="cls-8" d="M399.83,342.25s5.9,6.478,11.839,6.374" transform="translate(-279.275 -301.813)"/>
      <path id="Path_987" data-name="Path 987" class="cls-3" d="M296.783,394.3s-10.513,2.572-9.645,10.505C287.1,404.805,298.7,408.02,296.783,394.3Z" transform="translate(-257.15 -312.028)"/>
      <path id="Path_988" data-name="Path 988" class="cls-3" d="M269.364,400.12s-7.234-7.081-16.2-1.391C253.16,398.714,260.611,407.491,269.364,400.12Z" transform="translate(-250.492 -312.463)"/>
      <path id="Path_989" data-name="Path 989" class="cls-3" d="M249.84,372.317s.8,15.762,14.2,9.211C264.042,381.528,257.717,370.87,249.84,372.317Z" transform="translate(-249.84 -307.687)"/>
      <path id="Path_990" data-name="Path 990" class="cls-3" d="M268.491,358.13s-10.151,7.82-.506,15.609C267.984,373.739,274.752,365.959,268.491,358.13Z" transform="translate(-252.585 -304.93)"/>
      <path id="Path_991" data-name="Path 991" class="cls-3" d="M286.872,372.58s-12.313.739-10.5,11.96C276.375,384.54,288.576,383.053,286.872,372.58Z" transform="translate(-255.012 -307.765)"/>
      <path id="Path_992" data-name="Path 992" class="cls-8" d="M280.765,415.754s3.649-12.49-3.569-23.437S266.57,371.709,268.2,364.25" transform="translate(-253.365 -306.131)"/>
      <path id="Path_993" data-name="Path 993" class="cls-8" d="M283.178,377.13s-6.8,4.067-8.038,11.952" transform="translate(-254.805 -308.658)"/>
      <path id="Path_994" data-name="Path 994" class="cls-8" d="M255.86,379.28s5.12,5.04,12.129,3.271" transform="translate(-251.021 -309.08)"/>
      <path id="Path_995" data-name="Path 995" class="cls-8" d="M259.27,400.266s12.169,1.463,16.614-.386" transform="translate(-251.691 -313.123)"/>
      <path id="Path_996" data-name="Path 996" class="cls-8" d="M293.226,399.41s-4.276,6.543-9.516,7.3" transform="translate(-256.487 -313.031)"/>
    </g>
    <g id="freepik--Floor--inject-2" transform="translate(-1.177 285.046)">
      <path id="Path_997" data-name="Path 997" class="cls-23" d="M513.329,374l-1.977-.058.5-4.7a1.79,1.79,0,0,0-.226-1.351,3.325,3.325,0,0,0-2.025-.768,9.783,9.783,0,0,1-5.467-2.915c-.953-1.059-1.632-2.361-3.013-3.032-1.93-.972-4.359-.272-6.515.233s-4.919.651-6.206-.845c-.75-.874-.8-2.138-1.834-2.8s-2.942-.233-4.312.321c-5.277,2.118-11.172,4.858-12.185,9.61-.357,1.623-6.527,8.4-8.731,9.3-3.847,1.564-11.125-1.428-15.032-2.487a216.746,216.746,0,0,1-25.013-1.943c-2.382,0-4.764,1.943-7.147,3.887-1.191.972-1.191,1.943-2.382,2.915-3.573,2.915-9.529,4.858-10.72,9.717,0,6.8-9.529,10.688-16.675,13.6-10.72,3.887-21.44,4.858-32.159,8.745-5.955,1.943-13.1,1.943-20.249,1.943-8.338,5.83-14.293,12.632-20.249,20.4-1.191.972-2.382,2.915-4.764,2.915-76.23,0-153.65,0-230.249-.34v22.173H513.83Z" transform="translate(-76.688 -357.382)"/>
      <path id="Path_998" data-name="Path 998" class="cls-24" d="M76.69,436.347c76.6.34,154.02.34,230.249.34,2.382,0,3.573-1.943,4.764-2.915,5.955-7.773,11.911-14.575,20.248-20.4,7.147,0,14.293,0,20.249-1.943,10.72-3.887,21.44-4.858,32.159-8.745,7.147-2.915,16.675-6.8,16.675-13.6,1.191-4.858,7.147-6.8,10.72-9.717,1.191-.972,1.191-1.943,2.382-2.915,2.382-1.943,4.764-3.887,7.147-3.887A216.754,216.754,0,0,0,446.3,374.5c3.907,1.059,11.184,4.052,15.031,2.487,2.2-.9,8.338-7.676,8.731-9.3,1.012-4.722,6.908-7.492,12.185-9.61,1.37-.554,3.109-1.079,4.312-.321s1.084,1.943,1.834,2.8c1.286,1.5,4.038,1.341,6.206.845s4.586-1.166,6.515-.233c1.382.67,2.061,1.943,3.013,3.032a9.783,9.783,0,0,0,5.467,2.915,3.325,3.325,0,0,1,2.025.768" transform="translate(-76.69 -357.381)"/>
      <path id="Path_999" data-name="Path 999" class="cls-24" d="M389.3,394.234c5.086.311,12.459-2.478,12.542-2.235s8.957,1.117,8.957,1.117,11.756,2.73,13.7,1.117,7.933-.505,12.709-.865,9.648,2.8,9.648,2.8,8.433,5.9,9.529,6.17,9.6,2.3,12.9,4.168" transform="translate(-16.954 -358.361)"/>
      <path id="Path_1000" data-name="Path 1000" class="cls-24" d="M270,438.856h20.249s13.1-5.509,19.82-4.907a29.392,29.392,0,0,1,12.447,4.567h11.577l14.222,1.458H357.7" transform="translate(-39.751 -359.549)"/>
      <path id="Path_1001" data-name="Path 1001" class="cls-24" d="M390.926,414.062c-2.823-2.536-14.627-3.07-16.27-5.49s-11.994,3.119-13.412,2.264-8.874.68-10.089,3.566-.619,3.411-5.4,4.858" transform="translate(-25.274 -358.814)"/>
      <path id="Path_1002" data-name="Path 1002" class="cls-24" d="M450.683,379.08a5.988,5.988,0,0,0-6.551-.107,8.116,8.116,0,0,1-.858.583,6.518,6.518,0,0,1-2.739.34,11.3,11.3,0,0,0-5.824,1.7,5.575,5.575,0,0,1-1.715.913,7.465,7.465,0,0,1-1.191.126,6.92,6.92,0,0,0-2.894.972" transform="translate(-9.385 -357.966)"/>
      <path id="Path_1003" data-name="Path 1003" class="cls-24" d="M394.52,439.038c5.181,1.866,11.577.223,15.484-3.148,3.1-2.691,5.61-6.695,10.136-6.85,1.191,0,2.382.214,3.573.224,2.68,0,5.1-1.176,7.587-1.943s5.6-1.185,7.611.253c1.334.972,1.894,2.517,3.347,3.352s3.323.709,5.038.972,3.573,1.4,3.216,2.8" transform="translate(-15.956 -359.342)"/>
    </g>
  </g>
</svg>
